<?xml version="1.0" encoding="utf-8"?>
<svg xmlns="http://www.w3.org/2000/svg" xmlns:xlink="http://www.w3.org/1999/xlink" width="600" height="400" viewBox="0 0 2400 1600">
<defs>
  <clipPath id="clip970">
    <rect x="0" y="0" width="2400" height="1600"/>
  </clipPath>
</defs>
<path clip-path="url(#clip970)" d="
M0 1600 L2400 1600 L2400 0 L0 0  Z
  " fill="#ffffff" fill-rule="evenodd" fill-opacity="1"/>
<defs>
  <clipPath id="clip971">
    <rect x="480" y="0" width="1681" height="1600"/>
  </clipPath>
</defs>
<path clip-path="url(#clip970)" d="
M376.092 1423.18 L2352.76 1423.18 L2352.76 123.472 L376.092 123.472  Z
  " fill="#ffffff" fill-rule="evenodd" fill-opacity="1"/>
<defs>
  <clipPath id="clip972">
    <rect x="376" y="123" width="1978" height="1301"/>
  </clipPath>
</defs>
<polyline clip-path="url(#clip970)" style="stroke:#000000; stroke-linecap:butt; stroke-linejoin:round; stroke-width:4; stroke-opacity:1; fill:none" points="
  376.092,1423.18 2352.76,1423.18 
  "/>
<polyline clip-path="url(#clip970)" style="stroke:#000000; stroke-linecap:butt; stroke-linejoin:round; stroke-width:4; stroke-opacity:1; fill:none" points="
  376.092,1423.18 376.092,1404.28 
  "/>
<polyline clip-path="url(#clip970)" style="stroke:#000000; stroke-linecap:butt; stroke-linejoin:round; stroke-width:4; stroke-opacity:1; fill:none" points="
  705.536,1423.18 705.536,1404.28 
  "/>
<polyline clip-path="url(#clip970)" style="stroke:#000000; stroke-linecap:butt; stroke-linejoin:round; stroke-width:4; stroke-opacity:1; fill:none" points="
  1034.98,1423.18 1034.98,1404.28 
  "/>
<polyline clip-path="url(#clip970)" style="stroke:#000000; stroke-linecap:butt; stroke-linejoin:round; stroke-width:4; stroke-opacity:1; fill:none" points="
  1364.42,1423.18 1364.42,1404.28 
  "/>
<polyline clip-path="url(#clip970)" style="stroke:#000000; stroke-linecap:butt; stroke-linejoin:round; stroke-width:4; stroke-opacity:1; fill:none" points="
  1693.87,1423.18 1693.87,1404.28 
  "/>
<polyline clip-path="url(#clip970)" style="stroke:#000000; stroke-linecap:butt; stroke-linejoin:round; stroke-width:4; stroke-opacity:1; fill:none" points="
  2023.31,1423.18 2023.31,1404.28 
  "/>
<polyline clip-path="url(#clip970)" style="stroke:#000000; stroke-linecap:butt; stroke-linejoin:round; stroke-width:4; stroke-opacity:1; fill:none" points="
  2352.76,1423.18 2352.76,1404.28 
  "/>
<path clip-path="url(#clip970)" d="M376.092 1454.1 Q372.481 1454.1 370.652 1457.66 Q368.847 1461.2 368.847 1468.33 Q368.847 1475.44 370.652 1479.01 Q372.481 1482.55 376.092 1482.55 Q379.727 1482.55 381.532 1479.01 Q383.361 1475.44 383.361 1468.33 Q383.361 1461.2 381.532 1457.66 Q379.727 1454.1 376.092 1454.1 M376.092 1450.39 Q381.902 1450.39 384.958 1455 Q388.037 1459.58 388.037 1468.33 Q388.037 1477.06 384.958 1481.67 Q381.902 1486.25 376.092 1486.25 Q370.282 1486.25 367.203 1481.67 Q364.148 1477.06 364.148 1468.33 Q364.148 1459.58 367.203 1455 Q370.282 1450.39 376.092 1450.39 Z" fill="#000000" fill-rule="evenodd" fill-opacity="1" /><path clip-path="url(#clip970)" d="M680.224 1481.64 L687.863 1481.64 L687.863 1455.28 L679.553 1456.95 L679.553 1452.69 L687.816 1451.02 L692.492 1451.02 L692.492 1481.64 L700.131 1481.64 L700.131 1485.58 L680.224 1485.58 L680.224 1481.64 Z" fill="#000000" fill-rule="evenodd" fill-opacity="1" /><path clip-path="url(#clip970)" d="M719.575 1454.1 Q715.964 1454.1 714.136 1457.66 Q712.33 1461.2 712.33 1468.33 Q712.33 1475.44 714.136 1479.01 Q715.964 1482.55 719.575 1482.55 Q723.21 1482.55 725.015 1479.01 Q726.844 1475.44 726.844 1468.33 Q726.844 1461.2 725.015 1457.66 Q723.21 1454.1 719.575 1454.1 M719.575 1450.39 Q725.386 1450.39 728.441 1455 Q731.52 1459.58 731.52 1468.33 Q731.52 1477.06 728.441 1481.67 Q725.386 1486.25 719.575 1486.25 Q713.765 1486.25 710.687 1481.67 Q707.631 1477.06 707.631 1468.33 Q707.631 1459.58 710.687 1455 Q713.765 1450.39 719.575 1450.39 Z" fill="#000000" fill-rule="evenodd" fill-opacity="1" /><path clip-path="url(#clip970)" d="M1013.75 1481.64 L1030.07 1481.64 L1030.07 1485.58 L1008.13 1485.58 L1008.13 1481.64 Q1010.79 1478.89 1015.37 1474.26 Q1019.98 1469.61 1021.16 1468.27 Q1023.41 1465.74 1024.29 1464.01 Q1025.19 1462.25 1025.19 1460.56 Q1025.19 1457.8 1023.24 1456.07 Q1021.32 1454.33 1018.22 1454.33 Q1016.02 1454.33 1013.57 1455.09 Q1011.14 1455.86 1008.36 1457.41 L1008.36 1452.69 Q1011.18 1451.55 1013.64 1450.97 Q1016.09 1450.39 1018.13 1450.39 Q1023.5 1450.39 1026.69 1453.08 Q1029.89 1455.77 1029.89 1460.26 Q1029.89 1462.39 1029.08 1464.31 Q1028.29 1466.2 1026.18 1468.8 Q1025.61 1469.47 1022.5 1472.69 Q1019.4 1475.88 1013.75 1481.64 Z" fill="#000000" fill-rule="evenodd" fill-opacity="1" /><path clip-path="url(#clip970)" d="M1049.89 1454.1 Q1046.28 1454.1 1044.45 1457.66 Q1042.64 1461.2 1042.64 1468.33 Q1042.64 1475.44 1044.45 1479.01 Q1046.28 1482.55 1049.89 1482.55 Q1053.52 1482.55 1055.33 1479.01 Q1057.16 1475.44 1057.16 1468.33 Q1057.16 1461.2 1055.33 1457.66 Q1053.52 1454.1 1049.89 1454.1 M1049.89 1450.39 Q1055.7 1450.39 1058.75 1455 Q1061.83 1459.58 1061.83 1468.33 Q1061.83 1477.06 1058.75 1481.67 Q1055.7 1486.25 1049.89 1486.25 Q1044.08 1486.25 1041 1481.67 Q1037.94 1477.06 1037.94 1468.33 Q1037.94 1459.58 1041 1455 Q1044.08 1450.39 1049.89 1450.39 Z" fill="#000000" fill-rule="evenodd" fill-opacity="1" /><path clip-path="url(#clip970)" d="M1353.27 1466.95 Q1356.62 1467.66 1358.5 1469.93 Q1360.4 1472.2 1360.4 1475.53 Q1360.4 1480.65 1356.88 1483.45 Q1353.36 1486.25 1346.88 1486.25 Q1344.7 1486.25 1342.39 1485.81 Q1340.1 1485.39 1337.64 1484.54 L1337.64 1480.02 Q1339.59 1481.16 1341.9 1481.74 Q1344.22 1482.32 1346.74 1482.32 Q1351.14 1482.32 1353.43 1480.58 Q1355.74 1478.84 1355.74 1475.53 Q1355.74 1472.48 1353.59 1470.77 Q1351.46 1469.03 1347.64 1469.03 L1343.61 1469.03 L1343.61 1465.19 L1347.83 1465.19 Q1351.28 1465.19 1353.1 1463.82 Q1354.93 1462.43 1354.93 1459.84 Q1354.93 1457.18 1353.04 1455.77 Q1351.16 1454.33 1347.64 1454.33 Q1345.72 1454.33 1343.52 1454.75 Q1341.32 1455.16 1338.68 1456.04 L1338.68 1451.88 Q1341.35 1451.14 1343.66 1450.77 Q1346 1450.39 1348.06 1450.39 Q1353.38 1450.39 1356.48 1452.83 Q1359.59 1455.23 1359.59 1459.35 Q1359.59 1462.22 1357.94 1464.21 Q1356.3 1466.18 1353.27 1466.95 Z" fill="#000000" fill-rule="evenodd" fill-opacity="1" /><path clip-path="url(#clip970)" d="M1379.26 1454.1 Q1375.65 1454.1 1373.82 1457.66 Q1372.02 1461.2 1372.02 1468.33 Q1372.02 1475.44 1373.82 1479.01 Q1375.65 1482.55 1379.26 1482.55 Q1382.9 1482.55 1384.7 1479.01 Q1386.53 1475.44 1386.53 1468.33 Q1386.53 1461.2 1384.7 1457.66 Q1382.9 1454.1 1379.26 1454.1 M1379.26 1450.39 Q1385.07 1450.39 1388.13 1455 Q1391.21 1459.58 1391.21 1468.33 Q1391.21 1477.06 1388.13 1481.67 Q1385.07 1486.25 1379.26 1486.25 Q1373.45 1486.25 1370.37 1481.67 Q1367.32 1477.06 1367.32 1468.33 Q1367.32 1459.58 1370.37 1455 Q1373.45 1450.39 1379.26 1450.39 Z" fill="#000000" fill-rule="evenodd" fill-opacity="1" /><path clip-path="url(#clip970)" d="M1682.04 1455.09 L1670.23 1473.54 L1682.04 1473.54 L1682.04 1455.09 M1680.81 1451.02 L1686.69 1451.02 L1686.69 1473.54 L1691.62 1473.54 L1691.62 1477.43 L1686.69 1477.43 L1686.69 1485.58 L1682.04 1485.58 L1682.04 1477.43 L1666.44 1477.43 L1666.44 1472.92 L1680.81 1451.02 Z" fill="#000000" fill-rule="evenodd" fill-opacity="1" /><path clip-path="url(#clip970)" d="M1709.35 1454.1 Q1705.74 1454.1 1703.91 1457.66 Q1702.11 1461.2 1702.11 1468.33 Q1702.11 1475.44 1703.91 1479.01 Q1705.74 1482.55 1709.35 1482.55 Q1712.99 1482.55 1714.79 1479.01 Q1716.62 1475.44 1716.62 1468.33 Q1716.62 1461.2 1714.79 1457.66 Q1712.99 1454.1 1709.35 1454.1 M1709.35 1450.39 Q1715.16 1450.39 1718.22 1455 Q1721.3 1459.58 1721.3 1468.33 Q1721.3 1477.06 1718.22 1481.67 Q1715.16 1486.25 1709.35 1486.25 Q1703.54 1486.25 1700.47 1481.67 Q1697.41 1477.06 1697.41 1468.33 Q1697.41 1459.58 1700.47 1455 Q1703.54 1450.39 1709.35 1450.39 Z" fill="#000000" fill-rule="evenodd" fill-opacity="1" /><path clip-path="url(#clip970)" d="M1998.01 1451.02 L2016.37 1451.02 L2016.37 1454.96 L2002.29 1454.96 L2002.29 1463.43 Q2003.31 1463.08 2004.33 1462.92 Q2005.35 1462.73 2006.37 1462.73 Q2012.15 1462.73 2015.53 1465.9 Q2018.91 1469.08 2018.91 1474.49 Q2018.91 1480.07 2015.44 1483.17 Q2011.97 1486.25 2005.65 1486.25 Q2003.47 1486.25 2001.21 1485.88 Q1998.96 1485.51 1996.55 1484.77 L1996.55 1480.07 Q1998.64 1481.2 2000.86 1481.76 Q2003.08 1482.32 2005.56 1482.32 Q2009.56 1482.32 2011.9 1480.21 Q2014.24 1478.1 2014.24 1474.49 Q2014.24 1470.88 2011.9 1468.77 Q2009.56 1466.67 2005.56 1466.67 Q2003.68 1466.67 2001.81 1467.08 Q1999.96 1467.5 1998.01 1468.38 L1998.01 1451.02 Z" fill="#000000" fill-rule="evenodd" fill-opacity="1" /><path clip-path="url(#clip970)" d="M2038.13 1454.1 Q2034.52 1454.1 2032.69 1457.66 Q2030.88 1461.2 2030.88 1468.33 Q2030.88 1475.44 2032.69 1479.01 Q2034.52 1482.55 2038.13 1482.55 Q2041.76 1482.55 2043.57 1479.01 Q2045.4 1475.44 2045.4 1468.33 Q2045.4 1461.2 2043.57 1457.66 Q2041.76 1454.1 2038.13 1454.1 M2038.13 1450.39 Q2043.94 1450.39 2046.99 1455 Q2050.07 1459.58 2050.07 1468.33 Q2050.07 1477.06 2046.99 1481.67 Q2043.94 1486.25 2038.13 1486.25 Q2032.32 1486.25 2029.24 1481.67 Q2026.18 1477.06 2026.18 1468.33 Q2026.18 1459.58 2029.24 1455 Q2032.32 1450.39 2038.13 1450.39 Z" fill="#000000" fill-rule="evenodd" fill-opacity="1" /><path clip-path="url(#clip970)" d="M2338.16 1466.44 Q2335.01 1466.44 2333.16 1468.59 Q2331.33 1470.74 2331.33 1474.49 Q2331.33 1478.22 2333.16 1480.39 Q2335.01 1482.55 2338.16 1482.55 Q2341.31 1482.55 2343.14 1480.39 Q2344.99 1478.22 2344.99 1474.49 Q2344.99 1470.74 2343.14 1468.59 Q2341.31 1466.44 2338.16 1466.44 M2347.44 1451.78 L2347.44 1456.04 Q2345.68 1455.21 2343.88 1454.77 Q2342.1 1454.33 2340.34 1454.33 Q2335.71 1454.33 2333.25 1457.45 Q2330.82 1460.58 2330.48 1466.9 Q2331.84 1464.89 2333.9 1463.82 Q2335.96 1462.73 2338.44 1462.73 Q2343.65 1462.73 2346.66 1465.9 Q2349.69 1469.05 2349.69 1474.49 Q2349.69 1479.82 2346.54 1483.03 Q2343.39 1486.25 2338.16 1486.25 Q2332.17 1486.25 2328.99 1481.67 Q2325.82 1477.06 2325.82 1468.33 Q2325.82 1460.14 2329.71 1455.28 Q2333.6 1450.39 2340.15 1450.39 Q2341.91 1450.39 2343.69 1450.74 Q2345.5 1451.09 2347.44 1451.78 Z" fill="#000000" fill-rule="evenodd" fill-opacity="1" /><path clip-path="url(#clip970)" d="M2367.74 1454.1 Q2364.13 1454.1 2362.3 1457.66 Q2360.5 1461.2 2360.5 1468.33 Q2360.5 1475.44 2362.3 1479.01 Q2364.13 1482.55 2367.74 1482.55 Q2371.38 1482.55 2373.18 1479.01 Q2375.01 1475.44 2375.01 1468.33 Q2375.01 1461.2 2373.18 1457.66 Q2371.38 1454.1 2367.74 1454.1 M2367.74 1450.39 Q2373.55 1450.39 2376.61 1455 Q2379.69 1459.58 2379.69 1468.33 Q2379.69 1477.06 2376.61 1481.67 Q2373.55 1486.25 2367.74 1486.25 Q2361.93 1486.25 2358.86 1481.67 Q2355.8 1477.06 2355.8 1468.33 Q2355.8 1459.58 2358.86 1455 Q2361.93 1450.39 2367.74 1450.39 Z" fill="#000000" fill-rule="evenodd" fill-opacity="1" /><path clip-path="url(#clip970)" d="M954.489 1520.52 L964.069 1520.52 L976.196 1552.86 L988.386 1520.52 L997.966 1520.52 L997.966 1568.04 L991.696 1568.04 L991.696 1526.32 L979.442 1558.91 L972.981 1558.91 L960.727 1526.32 L960.727 1568.04 L954.489 1568.04 L954.489 1520.52 Z" fill="#000000" fill-rule="evenodd" fill-opacity="1" /><path clip-path="url(#clip970)" d="M1040.97 1548.76 L1040.97 1551.62 L1014.04 1551.62 Q1014.42 1557.67 1017.67 1560.85 Q1020.95 1564 1026.77 1564 Q1030.14 1564 1033.3 1563.17 Q1036.48 1562.35 1039.6 1560.69 L1039.6 1566.23 Q1036.45 1567.57 1033.14 1568.27 Q1029.83 1568.97 1026.42 1568.97 Q1017.89 1568.97 1012.89 1564 Q1007.93 1559.04 1007.93 1550.57 Q1007.93 1541.82 1012.64 1536.69 Q1017.38 1531.54 1025.4 1531.54 Q1032.6 1531.54 1036.77 1536.18 Q1040.97 1540.8 1040.97 1548.76 M1035.11 1547.04 Q1035.05 1542.23 1032.4 1539.37 Q1029.79 1536.5 1025.47 1536.5 Q1020.56 1536.5 1017.6 1539.27 Q1014.68 1542.04 1014.23 1547.07 L1035.11 1547.04 Z" fill="#000000" fill-rule="evenodd" fill-opacity="1" /><path clip-path="url(#clip970)" d="M1074.04 1537.81 L1074.04 1518.52 L1079.89 1518.52 L1079.89 1568.04 L1074.04 1568.04 L1074.04 1562.7 Q1072.19 1565.88 1069.36 1567.44 Q1066.56 1568.97 1062.61 1568.97 Q1056.15 1568.97 1052.07 1563.81 Q1048.03 1558.65 1048.03 1550.25 Q1048.03 1541.85 1052.07 1536.69 Q1056.15 1531.54 1062.61 1531.54 Q1066.56 1531.54 1069.36 1533.1 Q1072.19 1534.62 1074.04 1537.81 M1054.08 1550.25 Q1054.08 1556.71 1056.72 1560.4 Q1059.4 1564.07 1064.04 1564.07 Q1068.69 1564.07 1071.36 1560.4 Q1074.04 1556.71 1074.04 1550.25 Q1074.04 1543.79 1071.36 1540.13 Q1068.69 1536.44 1064.04 1536.44 Q1059.4 1536.44 1056.72 1540.13 Q1054.08 1543.79 1054.08 1550.25 Z" fill="#000000" fill-rule="evenodd" fill-opacity="1" /><path clip-path="url(#clip970)" d="M1091.96 1532.4 L1097.81 1532.4 L1097.81 1568.04 L1091.96 1568.04 L1091.96 1532.4 M1091.96 1518.52 L1097.81 1518.52 L1097.81 1525.93 L1091.96 1525.93 L1091.96 1518.52 Z" fill="#000000" fill-rule="evenodd" fill-opacity="1" /><path clip-path="url(#clip970)" d="M1126.27 1550.12 Q1119.17 1550.12 1116.43 1551.75 Q1113.69 1553.37 1113.69 1557.29 Q1113.69 1560.4 1115.73 1562.25 Q1117.8 1564.07 1121.33 1564.07 Q1126.2 1564.07 1129.13 1560.63 Q1132.09 1557.16 1132.09 1551.43 L1132.09 1550.12 L1126.27 1550.12 M1137.95 1547.71 L1137.95 1568.04 L1132.09 1568.04 L1132.09 1562.63 Q1130.09 1565.88 1127.09 1567.44 Q1124.1 1568.97 1119.77 1568.97 Q1114.3 1568.97 1111.05 1565.91 Q1107.84 1562.82 1107.84 1557.67 Q1107.84 1551.65 1111.85 1548.6 Q1115.89 1545.54 1123.88 1545.54 L1132.09 1545.54 L1132.09 1544.97 Q1132.09 1540.93 1129.42 1538.73 Q1126.78 1536.5 1121.97 1536.5 Q1118.91 1536.5 1116.02 1537.23 Q1113.12 1537.97 1110.45 1539.43 L1110.45 1534.02 Q1113.66 1532.78 1116.69 1532.17 Q1119.71 1531.54 1122.57 1531.54 Q1130.31 1531.54 1134.13 1535.55 Q1137.95 1539.56 1137.95 1547.71 Z" fill="#000000" fill-rule="evenodd" fill-opacity="1" /><path clip-path="url(#clip970)" d="M1179.64 1546.53 L1179.64 1568.04 L1173.79 1568.04 L1173.79 1546.72 Q1173.79 1541.66 1171.81 1539.14 Q1169.84 1536.63 1165.89 1536.63 Q1161.15 1536.63 1158.41 1539.65 Q1155.68 1542.68 1155.68 1547.9 L1155.68 1568.04 L1149.79 1568.04 L1149.79 1532.4 L1155.68 1532.4 L1155.68 1537.93 Q1157.78 1534.72 1160.61 1533.13 Q1163.47 1531.54 1167.2 1531.54 Q1173.34 1531.54 1176.49 1535.36 Q1179.64 1539.14 1179.64 1546.53 Z" fill="#000000" fill-rule="evenodd" fill-opacity="1" /><path clip-path="url(#clip970)" d="M1240.79 1522.08 L1240.79 1528.35 Q1237.13 1526.6 1233.88 1525.74 Q1230.63 1524.88 1227.61 1524.88 Q1222.36 1524.88 1219.49 1526.92 Q1216.66 1528.96 1216.66 1532.71 Q1216.66 1535.87 1218.54 1537.49 Q1220.45 1539.08 1225.73 1540.07 L1229.61 1540.86 Q1236.81 1542.23 1240.21 1545.7 Q1243.65 1549.14 1243.65 1554.93 Q1243.65 1561.84 1239 1565.4 Q1234.39 1568.97 1225.44 1568.97 Q1222.07 1568.97 1218.25 1568.2 Q1214.46 1567.44 1210.39 1565.94 L1210.39 1559.32 Q1214.3 1561.52 1218.06 1562.63 Q1221.82 1563.75 1225.44 1563.75 Q1230.95 1563.75 1233.94 1561.58 Q1236.93 1559.42 1236.93 1555.41 Q1236.93 1551.91 1234.77 1549.93 Q1232.64 1547.96 1227.74 1546.97 L1223.82 1546.21 Q1216.63 1544.78 1213.41 1541.72 Q1210.2 1538.67 1210.2 1533.22 Q1210.2 1526.92 1214.62 1523.29 Q1219.08 1519.66 1226.88 1519.66 Q1230.22 1519.66 1233.69 1520.27 Q1237.16 1520.87 1240.79 1522.08 Z" fill="#000000" fill-rule="evenodd" fill-opacity="1" /><path clip-path="url(#clip970)" d="M1259.09 1562.7 L1259.09 1581.6 L1253.2 1581.6 L1253.2 1532.4 L1259.09 1532.4 L1259.09 1537.81 Q1260.93 1534.62 1263.73 1533.1 Q1266.57 1531.54 1270.48 1531.54 Q1276.98 1531.54 1281.02 1536.69 Q1285.09 1541.85 1285.09 1550.25 Q1285.09 1558.65 1281.02 1563.81 Q1276.98 1568.97 1270.48 1568.97 Q1266.57 1568.97 1263.73 1567.44 Q1260.93 1565.88 1259.09 1562.7 M1279.01 1550.25 Q1279.01 1543.79 1276.34 1540.13 Q1273.7 1536.44 1269.05 1536.44 Q1264.4 1536.44 1261.73 1540.13 Q1259.09 1543.79 1259.09 1550.25 Q1259.09 1556.71 1261.73 1560.4 Q1264.4 1564.07 1269.05 1564.07 Q1273.7 1564.07 1276.34 1560.4 Q1279.01 1556.71 1279.01 1550.25 Z" fill="#000000" fill-rule="evenodd" fill-opacity="1" /><path clip-path="url(#clip970)" d="M1325.29 1548.76 L1325.29 1551.62 L1298.36 1551.62 Q1298.75 1557.67 1301.99 1560.85 Q1305.27 1564 1311.1 1564 Q1314.47 1564 1317.62 1563.17 Q1320.8 1562.35 1323.92 1560.69 L1323.92 1566.23 Q1320.77 1567.57 1317.46 1568.27 Q1314.15 1568.97 1310.75 1568.97 Q1302.22 1568.97 1297.22 1564 Q1292.25 1559.04 1292.25 1550.57 Q1292.25 1541.82 1296.96 1536.69 Q1301.71 1531.54 1309.73 1531.54 Q1316.92 1531.54 1321.09 1536.18 Q1325.29 1540.8 1325.29 1548.76 M1319.43 1547.04 Q1319.37 1542.23 1316.73 1539.37 Q1314.12 1536.5 1309.79 1536.5 Q1304.89 1536.5 1301.93 1539.27 Q1299 1542.04 1298.55 1547.07 L1319.43 1547.04 Z" fill="#000000" fill-rule="evenodd" fill-opacity="1" /><path clip-path="url(#clip970)" d="M1365.39 1548.76 L1365.39 1551.62 L1338.47 1551.62 Q1338.85 1557.67 1342.1 1560.85 Q1345.37 1564 1351.2 1564 Q1354.57 1564 1357.72 1563.17 Q1360.91 1562.35 1364.03 1560.69 L1364.03 1566.23 Q1360.88 1567.57 1357.57 1568.27 Q1354.25 1568.97 1350.85 1568.97 Q1342.32 1568.97 1337.32 1564 Q1332.36 1559.04 1332.36 1550.57 Q1332.36 1541.82 1337.07 1536.69 Q1341.81 1531.54 1349.83 1531.54 Q1357.02 1531.54 1361.19 1536.18 Q1365.39 1540.8 1365.39 1548.76 M1359.54 1547.04 Q1359.47 1542.23 1356.83 1539.37 Q1354.22 1536.5 1349.89 1536.5 Q1344.99 1536.5 1342.03 1539.27 Q1339.1 1542.04 1338.66 1547.07 L1359.54 1547.04 Z" fill="#000000" fill-rule="evenodd" fill-opacity="1" /><path clip-path="url(#clip970)" d="M1398.46 1537.81 L1398.46 1518.52 L1404.32 1518.52 L1404.32 1568.04 L1398.46 1568.04 L1398.46 1562.7 Q1396.62 1565.88 1393.79 1567.44 Q1390.99 1568.97 1387.04 1568.97 Q1380.58 1568.97 1376.5 1563.81 Q1372.46 1558.65 1372.46 1550.25 Q1372.46 1541.85 1376.5 1536.69 Q1380.58 1531.54 1387.04 1531.54 Q1390.99 1531.54 1393.79 1533.1 Q1396.62 1534.62 1398.46 1537.81 M1378.51 1550.25 Q1378.51 1556.71 1381.15 1560.4 Q1383.82 1564.07 1388.47 1564.07 Q1393.12 1564.07 1395.79 1560.4 Q1398.46 1556.71 1398.46 1550.25 Q1398.46 1543.79 1395.79 1540.13 Q1393.12 1536.44 1388.47 1536.44 Q1383.82 1536.44 1381.15 1540.13 Q1378.51 1543.79 1378.51 1550.25 Z" fill="#000000" fill-rule="evenodd" fill-opacity="1" /><path clip-path="url(#clip970)" d="M1437.1 1532.4 L1442.96 1532.4 L1442.96 1568.04 L1437.1 1568.04 L1437.1 1532.4 M1437.1 1518.52 L1442.96 1518.52 L1442.96 1525.93 L1437.1 1525.93 L1437.1 1518.52 Z" fill="#000000" fill-rule="evenodd" fill-opacity="1" /><path clip-path="url(#clip970)" d="M1484.85 1546.53 L1484.85 1568.04 L1478.99 1568.04 L1478.99 1546.72 Q1478.99 1541.66 1477.02 1539.14 Q1475.04 1536.63 1471.1 1536.63 Q1466.35 1536.63 1463.62 1539.65 Q1460.88 1542.68 1460.88 1547.9 L1460.88 1568.04 L1454.99 1568.04 L1454.99 1532.4 L1460.88 1532.4 L1460.88 1537.93 Q1462.98 1534.72 1465.81 1533.13 Q1468.68 1531.54 1472.4 1531.54 Q1478.55 1531.54 1481.7 1535.36 Q1484.85 1539.14 1484.85 1546.53 Z" fill="#000000" fill-rule="evenodd" fill-opacity="1" /><path clip-path="url(#clip970)" d="M1539.97 1533.45 L1539.97 1538.98 Q1537.49 1537.71 1534.82 1537.07 Q1532.14 1536.44 1529.28 1536.44 Q1524.92 1536.44 1522.72 1537.77 Q1520.56 1539.11 1520.56 1541.79 Q1520.56 1543.82 1522.12 1545 Q1523.68 1546.15 1528.39 1547.2 L1530.39 1547.64 Q1536.63 1548.98 1539.24 1551.43 Q1541.88 1553.85 1541.88 1558.21 Q1541.88 1563.17 1537.94 1566.07 Q1534.02 1568.97 1527.15 1568.97 Q1524.28 1568.97 1521.16 1568.39 Q1518.08 1567.85 1514.64 1566.74 L1514.64 1560.69 Q1517.89 1562.38 1521.04 1563.24 Q1524.19 1564.07 1527.27 1564.07 Q1531.41 1564.07 1533.64 1562.66 Q1535.87 1561.23 1535.87 1558.65 Q1535.87 1556.27 1534.25 1554.99 Q1532.65 1553.72 1527.21 1552.54 L1525.17 1552.07 Q1519.73 1550.92 1517.31 1548.56 Q1514.89 1546.18 1514.89 1542.04 Q1514.89 1537.01 1518.46 1534.27 Q1522.02 1531.54 1528.58 1531.54 Q1531.83 1531.54 1534.69 1532.01 Q1537.56 1532.49 1539.97 1533.45 Z" fill="#000000" fill-rule="evenodd" fill-opacity="1" /><path clip-path="url(#clip970)" d="M1581.7 1548.76 L1581.7 1551.62 L1554.77 1551.62 Q1555.16 1557.67 1558.4 1560.85 Q1561.68 1564 1567.51 1564 Q1570.88 1564 1574.03 1563.17 Q1577.21 1562.35 1580.33 1560.69 L1580.33 1566.23 Q1577.18 1567.57 1573.87 1568.27 Q1570.56 1568.97 1567.16 1568.97 Q1558.63 1568.97 1553.63 1564 Q1548.66 1559.04 1548.66 1550.57 Q1548.66 1541.82 1553.37 1536.69 Q1558.12 1531.54 1566.14 1531.54 Q1573.33 1531.54 1577.5 1536.18 Q1581.7 1540.8 1581.7 1548.76 M1575.85 1547.04 Q1575.78 1542.23 1573.14 1539.37 Q1570.53 1536.5 1566.2 1536.5 Q1561.3 1536.5 1558.34 1539.27 Q1555.41 1542.04 1554.97 1547.07 L1575.85 1547.04 Z" fill="#000000" fill-rule="evenodd" fill-opacity="1" /><path clip-path="url(#clip970)" d="M1616.97 1533.76 L1616.97 1539.24 Q1614.48 1537.87 1611.97 1537.2 Q1609.49 1536.5 1606.94 1536.5 Q1601.24 1536.5 1598.09 1540.13 Q1594.94 1543.73 1594.94 1550.25 Q1594.94 1556.78 1598.09 1560.4 Q1601.24 1564 1606.94 1564 Q1609.49 1564 1611.97 1563.33 Q1614.48 1562.63 1616.97 1561.26 L1616.97 1566.68 Q1614.52 1567.82 1611.88 1568.39 Q1609.27 1568.97 1606.31 1568.97 Q1598.25 1568.97 1593.51 1563.91 Q1588.77 1558.85 1588.77 1550.25 Q1588.77 1541.53 1593.54 1536.53 Q1598.35 1531.54 1606.69 1531.54 Q1609.39 1531.54 1611.97 1532.11 Q1614.55 1532.65 1616.97 1533.76 Z" fill="#000000" fill-rule="evenodd" fill-opacity="1" /><path clip-path="url(#clip970)" d="M1640.97 1536.5 Q1636.26 1536.5 1633.52 1540.19 Q1630.78 1543.85 1630.78 1550.25 Q1630.78 1556.65 1633.49 1560.34 Q1636.22 1564 1640.97 1564 Q1645.65 1564 1648.38 1560.31 Q1651.12 1556.62 1651.12 1550.25 Q1651.12 1543.92 1648.38 1540.23 Q1645.65 1536.5 1640.97 1536.5 M1640.97 1531.54 Q1648.61 1531.54 1652.97 1536.5 Q1657.33 1541.47 1657.33 1550.25 Q1657.33 1559 1652.97 1564 Q1648.61 1568.97 1640.97 1568.97 Q1633.3 1568.97 1628.94 1564 Q1624.61 1559 1624.61 1550.25 Q1624.61 1541.47 1628.94 1536.5 Q1633.3 1531.54 1640.97 1531.54 Z" fill="#000000" fill-rule="evenodd" fill-opacity="1" /><path clip-path="url(#clip970)" d="M1696.67 1546.53 L1696.67 1568.04 L1690.81 1568.04 L1690.81 1546.72 Q1690.81 1541.66 1688.84 1539.14 Q1686.86 1536.63 1682.92 1536.63 Q1678.17 1536.63 1675.44 1539.65 Q1672.7 1542.68 1672.7 1547.9 L1672.7 1568.04 L1666.81 1568.04 L1666.81 1532.4 L1672.7 1532.4 L1672.7 1537.93 Q1674.8 1534.72 1677.63 1533.13 Q1680.5 1531.54 1684.22 1531.54 Q1690.36 1531.54 1693.52 1535.36 Q1696.67 1539.14 1696.67 1546.53 Z" fill="#000000" fill-rule="evenodd" fill-opacity="1" /><path clip-path="url(#clip970)" d="M1731.8 1537.81 L1731.8 1518.52 L1737.66 1518.52 L1737.66 1568.04 L1731.8 1568.04 L1731.8 1562.7 Q1729.96 1565.88 1727.13 1567.44 Q1724.33 1568.97 1720.38 1568.97 Q1713.92 1568.97 1709.84 1563.81 Q1705.8 1558.65 1705.8 1550.25 Q1705.8 1541.85 1709.84 1536.69 Q1713.92 1531.54 1720.38 1531.54 Q1724.33 1531.54 1727.13 1533.1 Q1729.96 1534.62 1731.8 1537.81 M1711.85 1550.25 Q1711.85 1556.71 1714.49 1560.4 Q1717.16 1564.07 1721.81 1564.07 Q1726.46 1564.07 1729.13 1560.4 Q1731.8 1556.71 1731.8 1550.25 Q1731.8 1543.79 1729.13 1540.13 Q1726.46 1536.44 1721.81 1536.44 Q1717.16 1536.44 1714.49 1540.13 Q1711.85 1543.79 1711.85 1550.25 Z" fill="#000000" fill-rule="evenodd" fill-opacity="1" /><path clip-path="url(#clip970)" d="M1772.45 1533.45 L1772.45 1538.98 Q1769.97 1537.71 1767.29 1537.07 Q1764.62 1536.44 1761.76 1536.44 Q1757.4 1536.44 1755.2 1537.77 Q1753.03 1539.11 1753.03 1541.79 Q1753.03 1543.82 1754.59 1545 Q1756.15 1546.15 1760.86 1547.2 L1762.87 1547.64 Q1769.11 1548.98 1771.72 1551.43 Q1774.36 1553.85 1774.36 1558.21 Q1774.36 1563.17 1770.41 1566.07 Q1766.5 1568.97 1759.62 1568.97 Q1756.76 1568.97 1753.64 1568.39 Q1750.55 1567.85 1747.11 1566.74 L1747.11 1560.69 Q1750.36 1562.38 1753.51 1563.24 Q1756.66 1564.07 1759.75 1564.07 Q1763.89 1564.07 1766.12 1562.66 Q1768.34 1561.23 1768.34 1558.65 Q1768.34 1556.27 1766.72 1554.99 Q1765.13 1553.72 1759.69 1552.54 L1757.65 1552.07 Q1752.21 1550.92 1749.79 1548.56 Q1747.37 1546.18 1747.37 1542.04 Q1747.37 1537.01 1750.93 1534.27 Q1754.5 1531.54 1761.06 1531.54 Q1764.3 1531.54 1767.17 1532.01 Q1770.03 1532.49 1772.45 1533.45 Z" fill="#000000" fill-rule="evenodd" fill-opacity="1" /><path clip-path="url(#clip970)" d="M243.172 1296.72 L243.172 1301.65 Q240.81 1299.46 238.125 1298.37 Q235.463 1297.28 232.454 1297.28 Q226.528 1297.28 223.38 1300.91 Q220.232 1304.53 220.232 1311.38 Q220.232 1318.21 223.38 1321.84 Q226.528 1325.45 232.454 1325.45 Q235.463 1325.45 238.125 1324.36 Q240.81 1323.28 243.172 1321.08 L243.172 1325.96 Q240.718 1327.63 237.963 1328.46 Q235.232 1329.29 232.176 1329.29 Q224.329 1329.29 219.815 1324.5 Q215.301 1319.69 215.301 1311.38 Q215.301 1303.04 219.815 1298.25 Q224.329 1293.44 232.176 1293.44 Q235.278 1293.44 238.009 1294.27 Q240.764 1295.08 243.172 1296.72 Z" fill="#000000" fill-rule="evenodd" fill-opacity="1" /><path clip-path="url(#clip970)" d="M282.338 1315.36 Q282.338 1310.73 280.417 1308.18 Q278.519 1305.64 275.069 1305.64 Q271.644 1305.64 269.722 1308.18 Q267.824 1310.73 267.824 1315.36 Q267.824 1319.97 269.722 1322.51 Q271.644 1325.06 275.069 1325.06 Q278.519 1325.06 280.417 1322.51 Q282.338 1319.97 282.338 1315.36 M286.597 1325.4 Q286.597 1332.03 283.657 1335.24 Q280.718 1338.48 274.653 1338.48 Q272.407 1338.48 270.417 1338.14 Q268.426 1337.81 266.551 1337.12 L266.551 1332.97 Q268.426 1333.99 270.255 1334.48 Q272.083 1334.96 273.982 1334.96 Q278.171 1334.96 280.255 1332.77 Q282.338 1330.59 282.338 1326.17 L282.338 1324.06 Q281.019 1326.35 278.958 1327.49 Q276.898 1328.62 274.028 1328.62 Q269.259 1328.62 266.343 1324.99 Q263.426 1321.35 263.426 1315.36 Q263.426 1309.34 266.343 1305.71 Q269.259 1302.07 274.028 1302.07 Q276.898 1302.07 278.958 1303.21 Q281.019 1304.34 282.338 1306.63 L282.338 1302.7 L286.597 1302.7 L286.597 1325.4 Z" fill="#000000" fill-rule="evenodd" fill-opacity="1" /><path clip-path="url(#clip970)" d="M314.028 1303.69 L314.028 1307.67 Q312.222 1306.68 310.393 1306.19 Q308.588 1305.68 306.736 1305.68 Q302.592 1305.68 300.301 1308.32 Q298.009 1310.94 298.009 1315.68 Q298.009 1320.43 300.301 1323.07 Q302.592 1325.68 306.736 1325.68 Q308.588 1325.68 310.393 1325.2 Q312.222 1324.69 314.028 1323.69 L314.028 1327.63 Q312.245 1328.46 310.324 1328.88 Q308.426 1329.29 306.273 1329.29 Q300.417 1329.29 296.968 1325.61 Q293.518 1321.93 293.518 1315.68 Q293.518 1309.34 296.991 1305.71 Q300.486 1302.07 306.551 1302.07 Q308.518 1302.07 310.393 1302.49 Q312.268 1302.88 314.028 1303.69 Z" fill="#000000" fill-rule="evenodd" fill-opacity="1" /><path clip-path="url(#clip970)" d="M340.092 1303.69 L340.092 1307.67 Q338.287 1306.68 336.458 1306.19 Q334.652 1305.68 332.801 1305.68 Q328.657 1305.68 326.366 1308.32 Q324.074 1310.94 324.074 1315.68 Q324.074 1320.43 326.366 1323.07 Q328.657 1325.68 332.801 1325.68 Q334.652 1325.68 336.458 1325.2 Q338.287 1324.69 340.092 1323.69 L340.092 1327.63 Q338.31 1328.46 336.389 1328.88 Q334.49 1329.29 332.338 1329.29 Q326.481 1329.29 323.032 1325.61 Q319.583 1321.93 319.583 1315.68 Q319.583 1309.34 323.055 1305.71 Q326.551 1302.07 332.615 1302.07 Q334.583 1302.07 336.458 1302.49 Q338.333 1302.88 340.092 1303.69 Z" fill="#000000" fill-rule="evenodd" fill-opacity="1" /><path clip-path="url(#clip970)" d="M249.63 1025.05 L254.306 1025.05 L254.306 1057.21 Q254.306 1063.46 251.921 1066.28 Q249.56 1069.1 244.306 1069.1 L242.523 1069.1 L242.523 1065.17 L243.982 1065.17 Q247.084 1065.17 248.357 1063.43 Q249.63 1061.7 249.63 1057.21 L249.63 1025.05 Z" fill="#000000" fill-rule="evenodd" fill-opacity="1" /><path clip-path="url(#clip970)" d="M262.986 1049.38 L262.986 1033.69 L267.245 1033.69 L267.245 1049.22 Q267.245 1052.9 268.681 1054.75 Q270.116 1056.58 272.986 1056.58 Q276.435 1056.58 278.426 1054.38 Q280.44 1052.18 280.44 1048.39 L280.44 1033.69 L284.699 1033.69 L284.699 1059.61 L280.44 1059.61 L280.44 1055.63 Q278.889 1057.99 276.829 1059.15 Q274.792 1060.29 272.083 1060.29 Q267.616 1060.29 265.301 1057.51 Q262.986 1054.73 262.986 1049.38 M273.704 1033.06 L273.704 1033.06 Z" fill="#000000" fill-rule="evenodd" fill-opacity="1" /><path clip-path="url(#clip970)" d="M293.472 1023.6 L297.731 1023.6 L297.731 1059.61 L293.472 1059.61 L293.472 1023.6 Z" fill="#000000" fill-rule="evenodd" fill-opacity="1" /><path clip-path="url(#clip970)" d="M306.643 1033.69 L310.903 1033.69 L310.903 1059.61 L306.643 1059.61 L306.643 1033.69 M306.643 1023.6 L310.903 1023.6 L310.903 1028.99 L306.643 1028.99 L306.643 1023.6 Z" fill="#000000" fill-rule="evenodd" fill-opacity="1" /><path clip-path="url(#clip970)" d="M331.597 1046.58 Q326.435 1046.58 324.444 1047.76 Q322.453 1048.94 322.453 1051.79 Q322.453 1054.06 323.935 1055.4 Q325.44 1056.72 328.009 1056.72 Q331.551 1056.72 333.68 1054.22 Q335.833 1051.7 335.833 1047.53 L335.833 1046.58 L331.597 1046.58 M340.092 1044.82 L340.092 1059.61 L335.833 1059.61 L335.833 1055.68 Q334.375 1058.04 332.199 1059.17 Q330.023 1060.29 326.875 1060.29 Q322.893 1060.29 320.532 1058.06 Q318.194 1055.82 318.194 1052.07 Q318.194 1047.69 321.111 1045.47 Q324.051 1043.25 329.861 1043.25 L335.833 1043.25 L335.833 1042.83 Q335.833 1039.89 333.889 1038.29 Q331.967 1036.67 328.472 1036.67 Q326.25 1036.67 324.143 1037.21 Q322.037 1037.74 320.092 1038.8 L320.092 1034.87 Q322.43 1033.97 324.629 1033.53 Q326.828 1033.06 328.912 1033.06 Q334.537 1033.06 337.315 1035.98 Q340.092 1038.9 340.092 1044.82 Z" fill="#000000" fill-rule="evenodd" fill-opacity="1" /><path clip-path="url(#clip970)" d="M248.912 756.046 L253.588 756.046 L253.588 788.199 Q253.588 794.449 251.204 797.273 Q248.843 800.097 243.588 800.097 L241.806 800.097 L241.806 796.162 L243.264 796.162 Q246.366 796.162 247.639 794.425 Q248.912 792.689 248.912 788.199 L248.912 756.046 Z" fill="#000000" fill-rule="evenodd" fill-opacity="1" /><path clip-path="url(#clip970)" d="M274.491 777.574 Q269.329 777.574 267.338 778.754 Q265.347 779.935 265.347 782.782 Q265.347 785.05 266.829 786.393 Q268.333 787.712 270.903 787.712 Q274.444 787.712 276.574 785.212 Q278.727 782.689 278.727 778.523 L278.727 777.574 L274.491 777.574 M282.986 775.814 L282.986 790.606 L278.727 790.606 L278.727 786.671 Q277.269 789.032 275.093 790.166 Q272.917 791.277 269.769 791.277 Q265.787 791.277 263.426 789.055 Q261.088 786.81 261.088 783.06 Q261.088 778.685 264.005 776.463 Q266.945 774.24 272.755 774.24 L278.727 774.24 L278.727 773.824 Q278.727 770.884 276.782 769.287 Q274.861 767.666 271.366 767.666 Q269.144 767.666 267.037 768.199 Q264.931 768.731 262.986 769.796 L262.986 765.861 Q265.324 764.958 267.523 764.518 Q269.722 764.055 271.806 764.055 Q277.431 764.055 280.208 766.972 Q282.986 769.889 282.986 775.814 Z" fill="#000000" fill-rule="evenodd" fill-opacity="1" /><path clip-path="url(#clip970)" d="M288.704 764.68 L293.218 764.68 L301.319 786.439 L309.421 764.68 L313.935 764.68 L304.213 790.606 L298.426 790.606 L288.704 764.68 Z" fill="#000000" fill-rule="evenodd" fill-opacity="1" /><path clip-path="url(#clip970)" d="M331.597 777.574 Q326.435 777.574 324.444 778.754 Q322.453 779.935 322.453 782.782 Q322.453 785.05 323.935 786.393 Q325.44 787.712 328.009 787.712 Q331.551 787.712 333.68 785.212 Q335.833 782.689 335.833 778.523 L335.833 777.574 L331.597 777.574 M340.092 775.814 L340.092 790.606 L335.833 790.606 L335.833 786.671 Q334.375 789.032 332.199 790.166 Q330.023 791.277 326.875 791.277 Q322.893 791.277 320.532 789.055 Q318.194 786.81 318.194 783.06 Q318.194 778.685 321.111 776.463 Q324.051 774.24 329.861 774.24 L335.833 774.24 L335.833 773.824 Q335.833 770.884 333.889 769.287 Q331.967 767.666 328.472 767.666 Q326.25 767.666 324.143 768.199 Q322.037 768.731 320.092 769.796 L320.092 765.861 Q322.43 764.958 324.629 764.518 Q326.828 764.055 328.912 764.055 Q334.537 764.055 337.315 766.972 Q340.092 769.889 340.092 775.814 Z" fill="#000000" fill-rule="evenodd" fill-opacity="1" /><path clip-path="url(#clip970)" d="M114.26 487.038 L118.936 487.038 L118.936 517.663 L135.765 517.663 L135.765 521.598 L114.26 521.598 L114.26 487.038 Z" fill="#000000" fill-rule="evenodd" fill-opacity="1" /><path clip-path="url(#clip970)" d="M140.487 495.672 L144.746 495.672 L144.746 521.598 L140.487 521.598 L140.487 495.672 M140.487 485.579 L144.746 485.579 L144.746 490.973 L140.487 490.973 L140.487 485.579 Z" fill="#000000" fill-rule="evenodd" fill-opacity="1" /><path clip-path="url(#clip970)" d="M170.186 496.436 L170.186 500.464 Q168.38 499.538 166.436 499.075 Q164.491 498.612 162.408 498.612 Q159.237 498.612 157.64 499.584 Q156.065 500.556 156.065 502.501 Q156.065 503.982 157.2 504.839 Q158.334 505.672 161.76 506.436 L163.218 506.76 Q167.755 507.732 169.653 509.515 Q171.575 511.274 171.575 514.445 Q171.575 518.056 168.704 520.163 Q165.857 522.269 160.857 522.269 Q158.774 522.269 156.505 521.852 Q154.26 521.459 151.76 520.649 L151.76 516.251 Q154.121 517.477 156.413 518.102 Q158.704 518.704 160.95 518.704 Q163.959 518.704 165.579 517.686 Q167.2 516.644 167.2 514.769 Q167.2 513.033 166.019 512.107 Q164.862 511.181 160.903 510.325 L159.422 509.977 Q155.464 509.144 153.704 507.431 Q151.945 505.695 151.945 502.686 Q151.945 499.028 154.538 497.038 Q157.13 495.047 161.899 495.047 Q164.26 495.047 166.343 495.394 Q168.427 495.741 170.186 496.436 Z" fill="#000000" fill-rule="evenodd" fill-opacity="1" /><path clip-path="url(#clip970)" d="M182.477 517.709 L182.477 531.459 L178.195 531.459 L178.195 495.672 L182.477 495.672 L182.477 499.607 Q183.82 497.292 185.857 496.181 Q187.917 495.047 190.764 495.047 Q195.487 495.047 198.426 498.797 Q201.389 502.547 201.389 508.658 Q201.389 514.769 198.426 518.519 Q195.487 522.269 190.764 522.269 Q187.917 522.269 185.857 521.158 Q183.82 520.024 182.477 517.709 M196.968 508.658 Q196.968 503.959 195.024 501.297 Q193.102 498.612 189.723 498.612 Q186.343 498.612 184.399 501.297 Q182.477 503.959 182.477 508.658 Q182.477 513.357 184.399 516.042 Q186.343 518.704 189.723 518.704 Q193.102 518.704 195.024 516.042 Q196.968 513.357 196.968 508.658 Z" fill="#000000" fill-rule="evenodd" fill-opacity="1" /><path clip-path="url(#clip970)" d="M244.421 488.172 L244.421 492.732 Q241.759 491.459 239.398 490.834 Q237.037 490.209 234.838 490.209 Q231.019 490.209 228.935 491.691 Q226.875 493.172 226.875 495.903 Q226.875 498.195 228.241 499.376 Q229.63 500.533 233.472 501.251 L236.297 501.829 Q241.528 502.825 244.005 505.348 Q246.505 507.848 246.505 512.061 Q246.505 517.084 243.125 519.677 Q239.769 522.269 233.264 522.269 Q230.81 522.269 228.033 521.714 Q225.278 521.158 222.315 520.07 L222.315 515.255 Q225.162 516.852 227.894 517.663 Q230.625 518.473 233.264 518.473 Q237.269 518.473 239.445 516.899 Q241.621 515.325 241.621 512.408 Q241.621 509.862 240.047 508.427 Q238.496 506.991 234.931 506.274 L232.084 505.718 Q226.852 504.677 224.514 502.454 Q222.176 500.232 222.176 496.274 Q222.176 491.691 225.394 489.052 Q228.635 486.413 234.306 486.413 Q236.736 486.413 239.259 486.853 Q241.783 487.292 244.421 488.172 Z" fill="#000000" fill-rule="evenodd" fill-opacity="1" /><path clip-path="url(#clip970)" d="M258.472 505.093 L258.472 517.755 L265.972 517.755 Q269.745 517.755 271.551 516.204 Q273.38 514.63 273.38 511.413 Q273.38 508.172 271.551 506.644 Q269.745 505.093 265.972 505.093 L258.472 505.093 M258.472 490.88 L258.472 501.297 L265.394 501.297 Q268.82 501.297 270.486 500.024 Q272.176 498.728 272.176 496.089 Q272.176 493.473 270.486 492.177 Q268.82 490.88 265.394 490.88 L258.472 490.88 M253.796 487.038 L265.741 487.038 Q271.088 487.038 273.982 489.26 Q276.875 491.482 276.875 495.579 Q276.875 498.751 275.394 500.626 Q273.912 502.501 271.042 502.964 Q274.491 503.704 276.389 506.065 Q278.31 508.403 278.31 511.922 Q278.31 516.552 275.162 519.075 Q272.014 521.598 266.204 521.598 L253.796 521.598 L253.796 487.038 Z" fill="#000000" fill-rule="evenodd" fill-opacity="1" /><path clip-path="url(#clip970)" d="M311.366 489.7 L311.366 494.63 Q309.004 492.431 306.319 491.343 Q303.657 490.255 300.648 490.255 Q294.722 490.255 291.574 493.89 Q288.426 497.501 288.426 504.353 Q288.426 511.181 291.574 514.815 Q294.722 518.427 300.648 518.427 Q303.657 518.427 306.319 517.339 Q309.004 516.251 311.366 514.052 L311.366 518.936 Q308.912 520.602 306.157 521.436 Q303.426 522.269 300.37 522.269 Q292.523 522.269 288.009 517.477 Q283.495 512.663 283.495 504.353 Q283.495 496.019 288.009 491.228 Q292.523 486.413 300.37 486.413 Q303.472 486.413 306.204 487.246 Q308.958 488.056 311.366 489.7 Z" fill="#000000" fill-rule="evenodd" fill-opacity="1" /><path clip-path="url(#clip970)" d="M318.588 487.038 L323.264 487.038 L323.264 517.663 L340.092 517.663 L340.092 521.598 L318.588 521.598 L318.588 487.038 Z" fill="#000000" fill-rule="evenodd" fill-opacity="1" /><path clip-path="url(#clip970)" d="M143.658 221.872 L143.658 234.858 L149.538 234.858 Q152.802 234.858 154.584 233.168 Q156.366 231.479 156.366 228.354 Q156.366 225.252 154.584 223.562 Q152.802 221.872 149.538 221.872 L143.658 221.872 M138.982 218.03 L149.538 218.03 Q155.348 218.03 158.311 220.668 Q161.297 223.284 161.297 228.354 Q161.297 233.469 158.311 236.085 Q155.348 238.701 149.538 238.701 L143.658 238.701 L143.658 252.59 L138.982 252.59 L138.982 218.03 Z" fill="#000000" fill-rule="evenodd" fill-opacity="1" /><path clip-path="url(#clip970)" d="M178.172 254.997 Q176.366 259.627 174.653 261.039 Q172.94 262.451 170.07 262.451 L166.667 262.451 L166.667 258.886 L169.167 258.886 Q170.927 258.886 171.899 258.053 Q172.871 257.219 174.052 254.117 L174.815 252.173 L164.329 226.664 L168.843 226.664 L176.945 246.941 L185.047 226.664 L189.561 226.664 L178.172 254.997 Z" fill="#000000" fill-rule="evenodd" fill-opacity="1" /><path clip-path="url(#clip970)" d="M199.653 219.303 L199.653 226.664 L208.426 226.664 L208.426 229.974 L199.653 229.974 L199.653 244.048 Q199.653 247.219 200.51 248.122 Q201.389 249.025 204.051 249.025 L208.426 249.025 L208.426 252.59 L204.051 252.59 Q199.121 252.59 197.246 250.761 Q195.371 248.909 195.371 244.048 L195.371 229.974 L192.246 229.974 L192.246 226.664 L195.371 226.664 L195.371 219.303 L199.653 219.303 Z" fill="#000000" fill-rule="evenodd" fill-opacity="1" /><path clip-path="url(#clip970)" d="M235.579 236.942 L235.579 252.59 L231.32 252.59 L231.32 237.08 Q231.32 233.4 229.885 231.571 Q228.449 229.742 225.579 229.742 Q222.13 229.742 220.139 231.942 Q218.148 234.141 218.148 237.937 L218.148 252.59 L213.866 252.59 L213.866 216.571 L218.148 216.571 L218.148 230.692 Q219.676 228.354 221.736 227.196 Q223.82 226.039 226.528 226.039 Q230.996 226.039 233.287 228.817 Q235.579 231.571 235.579 236.942 Z" fill="#000000" fill-rule="evenodd" fill-opacity="1" /><path clip-path="url(#clip970)" d="M254.121 229.65 Q250.695 229.65 248.704 232.335 Q246.713 234.997 246.713 239.65 Q246.713 244.303 248.681 246.988 Q250.671 249.65 254.121 249.65 Q257.523 249.65 259.514 246.965 Q261.505 244.279 261.505 239.65 Q261.505 235.043 259.514 232.358 Q257.523 229.65 254.121 229.65 M254.121 226.039 Q259.676 226.039 262.847 229.65 Q266.019 233.261 266.019 239.65 Q266.019 246.016 262.847 249.65 Q259.676 253.261 254.121 253.261 Q248.542 253.261 245.371 249.65 Q242.222 246.016 242.222 239.65 Q242.222 233.261 245.371 229.65 Q248.542 226.039 254.121 226.039 Z" fill="#000000" fill-rule="evenodd" fill-opacity="1" /><path clip-path="url(#clip970)" d="M294.63 236.942 L294.63 252.59 L290.37 252.59 L290.37 237.08 Q290.37 233.4 288.935 231.571 Q287.5 229.742 284.63 229.742 Q281.181 229.742 279.19 231.942 Q277.199 234.141 277.199 237.937 L277.199 252.59 L272.917 252.59 L272.917 226.664 L277.199 226.664 L277.199 230.692 Q278.727 228.354 280.787 227.196 Q282.87 226.039 285.579 226.039 Q290.046 226.039 292.338 228.817 Q294.63 231.571 294.63 236.942 Z" fill="#000000" fill-rule="evenodd" fill-opacity="1" /><path clip-path="url(#clip970)" d="M332.963 233.955 Q336.319 234.673 338.194 236.942 Q340.092 239.21 340.092 242.543 Q340.092 247.659 336.574 250.46 Q333.055 253.261 326.574 253.261 Q324.398 253.261 322.083 252.821 Q319.791 252.404 317.338 251.548 L317.338 247.034 Q319.282 248.168 321.597 248.747 Q323.912 249.326 326.435 249.326 Q330.833 249.326 333.125 247.59 Q335.44 245.854 335.44 242.543 Q335.44 239.488 333.287 237.775 Q331.157 236.039 327.338 236.039 L323.31 236.039 L323.31 232.196 L327.523 232.196 Q330.972 232.196 332.801 230.83 Q334.629 229.442 334.629 226.849 Q334.629 224.187 332.731 222.775 Q330.856 221.34 327.338 221.34 Q325.416 221.34 323.217 221.756 Q321.018 222.173 318.379 223.053 L318.379 218.886 Q321.041 218.145 323.356 217.775 Q325.694 217.405 327.754 217.405 Q333.078 217.405 336.18 219.835 Q339.282 222.243 339.282 226.363 Q339.282 229.233 337.639 231.224 Q335.995 233.192 332.963 233.955 Z" fill="#000000" fill-rule="evenodd" fill-opacity="1" /><path clip-path="url(#clip970)" d="M21.7677 1169.96 L39.6235 1169.96 L39.6235 1161.87 Q39.6235 1157.38 37.3 1154.93 Q34.9765 1152.48 30.6797 1152.48 Q26.4147 1152.48 24.0912 1154.93 Q21.7677 1157.38 21.7677 1161.87 L21.7677 1169.96 M16.4842 1176.39 L16.4842 1161.87 Q16.4842 1153.88 20.1126 1149.81 Q23.7092 1145.7 30.6797 1145.7 Q37.7138 1145.7 41.3104 1149.81 Q44.907 1153.88 44.907 1161.87 L44.907 1169.96 L64.0042 1169.96 L64.0042 1176.39 L16.4842 1176.39 Z" fill="#000000" fill-rule="evenodd" fill-opacity="1" /><path clip-path="url(#clip970)" d="M33.8307 1117.82 Q33.2578 1118.81 33.0032 1119.99 Q32.7167 1121.13 32.7167 1122.53 Q32.7167 1127.5 35.9632 1130.17 Q39.1779 1132.81 45.2253 1132.81 L64.0042 1132.81 L64.0042 1138.7 L28.3562 1138.7 L28.3562 1132.81 L33.8944 1132.81 Q30.6479 1130.97 29.0883 1128.01 Q27.4968 1125.05 27.4968 1120.81 Q27.4968 1120.21 27.5923 1119.48 Q27.656 1118.75 27.8151 1117.85 L33.8307 1117.82 Z" fill="#000000" fill-rule="evenodd" fill-opacity="1" /><path clip-path="url(#clip970)" d="M32.4621 1099.3 Q32.4621 1104.01 36.1542 1106.75 Q39.8145 1109.48 46.212 1109.48 Q52.6095 1109.48 56.3017 1106.78 Q59.9619 1104.04 59.9619 1099.3 Q59.9619 1094.62 56.2698 1091.88 Q52.5777 1089.14 46.212 1089.14 Q39.8781 1089.14 36.186 1091.88 Q32.4621 1094.62 32.4621 1099.3 M27.4968 1099.3 Q27.4968 1091.66 32.4621 1087.3 Q37.4273 1082.94 46.212 1082.94 Q54.9649 1082.94 59.9619 1087.3 Q64.9272 1091.66 64.9272 1099.3 Q64.9272 1106.97 59.9619 1111.33 Q54.9649 1115.66 46.212 1115.66 Q37.4273 1115.66 32.4621 1111.33 Q27.4968 1106.97 27.4968 1099.3 Z" fill="#000000" fill-rule="evenodd" fill-opacity="1" /><path clip-path="url(#clip970)" d="M45.7664 1049.77 Q39.4007 1049.77 35.8996 1052.41 Q32.3984 1055.02 32.3984 1059.77 Q32.3984 1064.48 35.8996 1067.12 Q39.4007 1069.73 45.7664 1069.73 Q52.1003 1069.73 55.6014 1067.12 Q59.1026 1064.48 59.1026 1059.77 Q59.1026 1055.02 55.6014 1052.41 Q52.1003 1049.77 45.7664 1049.77 M59.58 1043.92 Q68.683 1043.92 73.1071 1047.96 Q77.5631 1052 77.5631 1060.34 Q77.5631 1063.43 77.0857 1066.16 Q76.6401 1068.9 75.6852 1071.48 L69.9879 1071.48 Q71.3884 1068.9 72.0568 1066.39 Q72.7252 1063.87 72.7252 1061.26 Q72.7252 1055.5 69.7015 1052.64 Q66.7096 1049.77 60.6303 1049.77 L57.7339 1049.77 Q60.885 1051.59 62.4446 1054.42 Q64.0042 1057.25 64.0042 1061.2 Q64.0042 1067.76 59.0071 1071.77 Q54.01 1075.78 45.7664 1075.78 Q37.491 1075.78 32.4939 1071.77 Q27.4968 1067.76 27.4968 1061.2 Q27.4968 1057.25 29.0564 1054.42 Q30.616 1051.59 33.7671 1049.77 L28.3562 1049.77 L28.3562 1043.92 L59.58 1043.92 Z" fill="#000000" fill-rule="evenodd" fill-opacity="1" /><path clip-path="url(#clip970)" d="M33.8307 1011.2 Q33.2578 1012.18 33.0032 1013.36 Q32.7167 1014.51 32.7167 1015.91 Q32.7167 1020.87 35.9632 1023.55 Q39.1779 1026.19 45.2253 1026.19 L64.0042 1026.19 L64.0042 1032.08 L28.3562 1032.08 L28.3562 1026.19 L33.8944 1026.19 Q30.6479 1024.34 29.0883 1021.38 Q27.4968 1018.42 27.4968 1014.19 Q27.4968 1013.58 27.5923 1012.85 Q27.656 1012.12 27.8151 1011.23 L33.8307 1011.2 Z" fill="#000000" fill-rule="evenodd" fill-opacity="1" /><path clip-path="url(#clip970)" d="M46.0847 988.853 Q46.0847 995.951 47.7079 998.688 Q49.3312 1001.43 53.2461 1001.43 Q56.3653 1001.43 58.2114 999.388 Q60.0256 997.319 60.0256 993.786 Q60.0256 988.917 56.5881 985.988 Q53.1188 983.028 47.3897 983.028 L46.0847 983.028 L46.0847 988.853 M43.6657 977.172 L64.0042 977.172 L64.0042 983.028 L58.5933 983.028 Q61.8398 985.033 63.3994 988.025 Q64.9272 991.017 64.9272 995.346 Q64.9272 1000.82 61.8716 1004.07 Q58.7843 1007.28 53.6281 1007.28 Q47.6125 1007.28 44.5569 1003.27 Q41.5014 999.229 41.5014 991.24 L41.5014 983.028 L40.9285 983.028 Q36.8862 983.028 34.6901 985.702 Q32.4621 988.344 32.4621 993.15 Q32.4621 996.205 33.1941 999.102 Q33.9262 1002 35.3903 1004.67 L29.9795 1004.67 Q28.7381 1001.46 28.1334 998.433 Q27.4968 995.41 27.4968 992.545 Q27.4968 984.811 31.5072 980.991 Q35.5176 977.172 43.6657 977.172 Z" fill="#000000" fill-rule="evenodd" fill-opacity="1" /><path clip-path="url(#clip970)" d="M35.1993 937.354 Q31.2526 935.158 29.3747 932.103 Q27.4968 929.047 27.4968 924.909 Q27.4968 919.339 31.4117 916.316 Q35.2948 913.292 42.4881 913.292 L64.0042 913.292 L64.0042 919.18 L42.679 919.18 Q37.5546 919.18 35.072 920.994 Q32.5894 922.809 32.5894 926.533 Q32.5894 931.084 35.6131 933.726 Q38.6368 936.368 43.8567 936.368 L64.0042 936.368 L64.0042 942.256 L42.679 942.256 Q37.5228 942.256 35.072 944.07 Q32.5894 945.884 32.5894 949.672 Q32.5894 954.16 35.6449 956.802 Q38.6686 959.443 43.8567 959.443 L64.0042 959.443 L64.0042 965.332 L28.3562 965.332 L28.3562 959.443 L33.8944 959.443 Q30.616 957.438 29.0564 954.637 Q27.4968 951.836 27.4968 947.985 Q27.4968 944.102 29.4702 941.397 Q31.4436 938.659 35.1993 937.354 Z" fill="#000000" fill-rule="evenodd" fill-opacity="1" /><path clip-path="url(#clip970)" d="M35.1993 873.856 Q31.2526 871.66 29.3747 868.605 Q27.4968 865.549 27.4968 861.411 Q27.4968 855.841 31.4117 852.818 Q35.2948 849.794 42.4881 849.794 L64.0042 849.794 L64.0042 855.682 L42.679 855.682 Q37.5546 855.682 35.072 857.497 Q32.5894 859.311 32.5894 863.035 Q32.5894 867.586 35.6131 870.228 Q38.6368 872.87 43.8567 872.87 L64.0042 872.87 L64.0042 878.758 L42.679 878.758 Q37.5228 878.758 35.072 880.572 Q32.5894 882.386 32.5894 886.174 Q32.5894 890.662 35.6449 893.304 Q38.6686 895.945 43.8567 895.945 L64.0042 895.945 L64.0042 901.834 L28.3562 901.834 L28.3562 895.945 L33.8944 895.945 Q30.616 893.94 29.0564 891.139 Q27.4968 888.338 27.4968 884.487 Q27.4968 880.604 29.4702 877.899 Q31.4436 875.161 35.1993 873.856 Z" fill="#000000" fill-rule="evenodd" fill-opacity="1" /><path clip-path="url(#clip970)" d="M28.3562 838.113 L28.3562 832.257 L64.0042 832.257 L64.0042 838.113 L28.3562 838.113 M14.479 838.113 L14.479 832.257 L21.895 832.257 L21.895 838.113 L14.479 838.113 Z" fill="#000000" fill-rule="evenodd" fill-opacity="1" /><path clip-path="url(#clip970)" d="M42.4881 790.37 L64.0042 790.37 L64.0042 796.227 L42.679 796.227 Q37.6183 796.227 35.1038 798.2 Q32.5894 800.173 32.5894 804.12 Q32.5894 808.863 35.6131 811.6 Q38.6368 814.337 43.8567 814.337 L64.0042 814.337 L64.0042 820.225 L28.3562 820.225 L28.3562 814.337 L33.8944 814.337 Q30.6797 812.236 29.0883 809.404 Q27.4968 806.539 27.4968 802.815 Q27.4968 796.672 31.3163 793.521 Q35.1038 790.37 42.4881 790.37 Z" fill="#000000" fill-rule="evenodd" fill-opacity="1" /><path clip-path="url(#clip970)" d="M45.7664 755.231 Q39.4007 755.231 35.8996 757.873 Q32.3984 760.483 32.3984 765.226 Q32.3984 769.936 35.8996 772.578 Q39.4007 775.188 45.7664 775.188 Q52.1003 775.188 55.6014 772.578 Q59.1026 769.936 59.1026 765.226 Q59.1026 760.483 55.6014 757.873 Q52.1003 755.231 45.7664 755.231 M59.58 749.375 Q68.683 749.375 73.1071 753.417 Q77.5631 757.459 77.5631 765.799 Q77.5631 768.886 77.0857 771.623 Q76.6401 774.36 75.6852 776.939 L69.9879 776.939 Q71.3884 774.36 72.0568 771.846 Q72.7252 769.332 72.7252 766.722 Q72.7252 760.961 69.7015 758.096 Q66.7096 755.231 60.6303 755.231 L57.7339 755.231 Q60.885 757.046 62.4446 759.878 Q64.0042 762.711 64.0042 766.658 Q64.0042 773.215 59.0071 777.225 Q54.01 781.235 45.7664 781.235 Q37.491 781.235 32.4939 777.225 Q27.4968 773.215 27.4968 766.658 Q27.4968 762.711 29.0564 759.878 Q30.616 757.046 33.7671 755.231 L28.3562 755.231 L28.3562 749.375 L59.58 749.375 Z" fill="#000000" fill-rule="evenodd" fill-opacity="1" /><path clip-path="url(#clip970)" d="M16.4842 716.337 L16.4842 709.908 L58.5933 709.908 L58.5933 686.768 L64.0042 686.768 L64.0042 716.337 L16.4842 716.337 Z" fill="#000000" fill-rule="evenodd" fill-opacity="1" /><path clip-path="url(#clip970)" d="M46.0847 664.075 Q46.0847 671.172 47.7079 673.91 Q49.3312 676.647 53.2461 676.647 Q56.3653 676.647 58.2114 674.61 Q60.0256 672.541 60.0256 669.008 Q60.0256 664.138 56.5881 661.21 Q53.1188 658.25 47.3897 658.25 L46.0847 658.25 L46.0847 664.075 M43.6657 652.393 L64.0042 652.393 L64.0042 658.25 L58.5933 658.25 Q61.8398 660.255 63.3994 663.247 Q64.9272 666.239 64.9272 670.568 Q64.9272 676.042 61.8716 679.289 Q58.7843 682.503 53.6281 682.503 Q47.6125 682.503 44.5569 678.493 Q41.5014 674.451 41.5014 666.462 L41.5014 658.25 L40.9285 658.25 Q36.8862 658.25 34.6901 660.924 Q32.4621 663.565 32.4621 668.371 Q32.4621 671.427 33.1941 674.323 Q33.9262 677.22 35.3903 679.893 L29.9795 679.893 Q28.7381 676.679 28.1334 673.655 Q27.4968 670.631 27.4968 667.767 Q27.4968 660.032 31.5072 656.213 Q35.5176 652.393 43.6657 652.393 Z" fill="#000000" fill-rule="evenodd" fill-opacity="1" /><path clip-path="url(#clip970)" d="M42.4881 610.698 L64.0042 610.698 L64.0042 616.555 L42.679 616.555 Q37.6183 616.555 35.1038 618.528 Q32.5894 620.501 32.5894 624.448 Q32.5894 629.19 35.6131 631.928 Q38.6368 634.665 43.8567 634.665 L64.0042 634.665 L64.0042 640.553 L28.3562 640.553 L28.3562 634.665 L33.8944 634.665 Q30.6797 632.564 29.0883 629.732 Q27.4968 626.867 27.4968 623.143 Q27.4968 617 31.3163 613.849 Q35.1038 610.698 42.4881 610.698 Z" fill="#000000" fill-rule="evenodd" fill-opacity="1" /><path clip-path="url(#clip970)" d="M45.7664 575.559 Q39.4007 575.559 35.8996 578.201 Q32.3984 580.811 32.3984 585.554 Q32.3984 590.264 35.8996 592.906 Q39.4007 595.516 45.7664 595.516 Q52.1003 595.516 55.6014 592.906 Q59.1026 590.264 59.1026 585.554 Q59.1026 580.811 55.6014 578.201 Q52.1003 575.559 45.7664 575.559 M59.58 569.703 Q68.683 569.703 73.1071 573.745 Q77.5631 577.787 77.5631 586.126 Q77.5631 589.214 77.0857 591.951 Q76.6401 594.688 75.6852 597.266 L69.9879 597.266 Q71.3884 594.688 72.0568 592.174 Q72.7252 589.659 72.7252 587.049 Q72.7252 581.289 69.7015 578.424 Q66.7096 575.559 60.6303 575.559 L57.7339 575.559 Q60.885 577.374 62.4446 580.206 Q64.0042 583.039 64.0042 586.986 Q64.0042 593.543 59.0071 597.553 Q54.01 601.563 45.7664 601.563 Q37.491 601.563 32.4939 597.553 Q27.4968 593.543 27.4968 586.986 Q27.4968 583.039 29.0564 580.206 Q30.616 577.374 33.7671 575.559 L28.3562 575.559 L28.3562 569.703 L59.58 569.703 Z" fill="#000000" fill-rule="evenodd" fill-opacity="1" /><path clip-path="url(#clip970)" d="M49.9359 558.245 L28.3562 558.245 L28.3562 552.388 L49.7131 552.388 Q54.7739 552.388 57.3202 550.415 Q59.8346 548.441 59.8346 544.495 Q59.8346 539.752 56.8109 537.015 Q53.7872 534.246 48.5673 534.246 L28.3562 534.246 L28.3562 528.39 L64.0042 528.39 L64.0042 534.246 L58.5296 534.246 Q61.7762 536.378 63.3676 539.211 Q64.9272 542.012 64.9272 545.736 Q64.9272 551.879 61.1078 555.062 Q57.2883 558.245 49.9359 558.245 M27.4968 543.508 L27.4968 543.508 Z" fill="#000000" fill-rule="evenodd" fill-opacity="1" /><path clip-path="url(#clip970)" d="M46.0847 500.126 Q46.0847 507.224 47.7079 509.961 Q49.3312 512.698 53.2461 512.698 Q56.3653 512.698 58.2114 510.661 Q60.0256 508.592 60.0256 505.059 Q60.0256 500.189 56.5881 497.261 Q53.1188 494.301 47.3897 494.301 L46.0847 494.301 L46.0847 500.126 M43.6657 488.445 L64.0042 488.445 L64.0042 494.301 L58.5933 494.301 Q61.8398 496.306 63.3994 499.298 Q64.9272 502.29 64.9272 506.619 Q64.9272 512.093 61.8716 515.34 Q58.7843 518.554 53.6281 518.554 Q47.6125 518.554 44.5569 514.544 Q41.5014 510.502 41.5014 502.513 L41.5014 494.301 L40.9285 494.301 Q36.8862 494.301 34.6901 496.975 Q32.4621 499.617 32.4621 504.423 Q32.4621 507.478 33.1941 510.375 Q33.9262 513.271 35.3903 515.945 L29.9795 515.945 Q28.7381 512.73 28.1334 509.706 Q27.4968 506.682 27.4968 503.818 Q27.4968 496.084 31.5072 492.264 Q35.5176 488.445 43.6657 488.445 Z" fill="#000000" fill-rule="evenodd" fill-opacity="1" /><path clip-path="url(#clip970)" d="M45.7664 452.924 Q39.4007 452.924 35.8996 455.566 Q32.3984 458.176 32.3984 462.918 Q32.3984 467.629 35.8996 470.271 Q39.4007 472.881 45.7664 472.881 Q52.1003 472.881 55.6014 470.271 Q59.1026 467.629 59.1026 462.918 Q59.1026 458.176 55.6014 455.566 Q52.1003 452.924 45.7664 452.924 M59.58 447.068 Q68.683 447.068 73.1071 451.11 Q77.5631 455.152 77.5631 463.491 Q77.5631 466.578 77.0857 469.316 Q76.6401 472.053 75.6852 474.631 L69.9879 474.631 Q71.3884 472.053 72.0568 469.539 Q72.7252 467.024 72.7252 464.414 Q72.7252 458.653 69.7015 455.789 Q66.7096 452.924 60.6303 452.924 L57.7339 452.924 Q60.885 454.738 62.4446 457.571 Q64.0042 460.404 64.0042 464.35 Q64.0042 470.907 59.0071 474.918 Q54.01 478.928 45.7664 478.928 Q37.491 478.928 32.4939 474.918 Q27.4968 470.907 27.4968 464.35 Q27.4968 460.404 29.0564 457.571 Q30.616 454.738 33.7671 452.924 L28.3562 452.924 L28.3562 447.068 L59.58 447.068 Z" fill="#000000" fill-rule="evenodd" fill-opacity="1" /><path clip-path="url(#clip970)" d="M44.7161 404.513 L47.5806 404.513 L47.5806 431.44 Q53.6281 431.058 56.8109 427.811 Q59.9619 424.533 59.9619 418.708 Q59.9619 415.335 59.1344 412.184 Q58.3069 409.001 56.6518 405.881 L62.1899 405.881 Q63.5267 409.033 64.227 412.343 Q64.9272 415.653 64.9272 419.058 Q64.9272 427.589 59.9619 432.586 Q54.9967 437.551 46.5303 437.551 Q37.7774 437.551 32.6531 432.84 Q27.4968 428.098 27.4968 420.077 Q27.4968 412.884 32.1438 408.714 Q36.7589 404.513 44.7161 404.513 M42.9973 410.369 Q38.1912 410.433 35.3266 413.075 Q32.4621 415.685 32.4621 420.013 Q32.4621 424.915 35.2312 427.875 Q38.0002 430.803 43.0292 431.249 L42.9973 410.369 Z" fill="#000000" fill-rule="evenodd" fill-opacity="1" /><path clip-path="url(#clip970)" d="M29.4065 372.175 L34.9447 372.175 Q33.6716 374.658 33.035 377.331 Q32.3984 380.005 32.3984 382.869 Q32.3984 387.23 33.7352 389.426 Q35.072 391.59 37.7456 391.59 Q39.7826 391.59 40.9603 390.031 Q42.1061 388.471 43.1565 383.761 L43.6021 381.755 Q44.9389 375.517 47.3897 372.907 Q49.8086 370.265 54.1691 370.265 Q59.1344 370.265 62.0308 374.212 Q64.9272 378.127 64.9272 385.002 Q64.9272 387.867 64.3543 390.986 Q63.8132 394.073 62.6992 397.511 L56.6518 397.511 Q58.3387 394.264 59.198 391.113 Q60.0256 387.962 60.0256 384.875 Q60.0256 380.737 58.6251 378.509 Q57.1929 376.281 54.6147 376.281 Q52.2276 376.281 50.9545 377.904 Q49.6813 379.496 48.5037 384.938 L48.0262 386.975 Q46.8804 392.418 44.5251 394.837 Q42.138 397.256 38.0002 397.256 Q32.9713 397.256 30.2341 393.691 Q27.4968 390.126 27.4968 383.57 Q27.4968 380.323 27.9743 377.459 Q28.4517 374.594 29.4065 372.175 Z" fill="#000000" fill-rule="evenodd" fill-opacity="1" /><path clip-path="url(#clip970)" d="M836.895 43.6931 L836.895 65.8515 L850.02 65.8515 Q856.623 65.8515 859.783 63.1374 Q862.983 60.3828 862.983 54.752 Q862.983 49.0808 859.783 46.4072 Q856.623 43.6931 850.02 43.6931 L836.895 43.6931 M836.895 18.8205 L836.895 37.0496 L849.007 37.0496 Q855.003 37.0496 857.919 34.8216 Q860.876 32.5531 860.876 27.935 Q860.876 23.3575 857.919 21.089 Q855.003 18.8205 849.007 18.8205 L836.895 18.8205 M828.712 12.096 L849.615 12.096 Q858.973 12.096 864.036 15.9849 Q869.1 19.8737 869.1 27.0438 Q869.1 32.5936 866.507 35.8748 Q863.915 39.156 858.892 39.9662 Q864.927 41.2625 868.249 45.3944 Q871.611 49.4858 871.611 55.6432 Q871.611 63.745 866.102 68.1605 Q860.593 72.576 850.425 72.576 L828.712 72.576 L828.712 12.096 Z" fill="#000000" fill-rule="evenodd" fill-opacity="1" /><path clip-path="url(#clip970)" d="M924.111 48.0275 L924.111 51.6733 L889.84 51.6733 Q890.327 59.3701 894.458 63.421 Q898.631 67.4314 906.044 67.4314 Q910.338 67.4314 914.348 66.3781 Q918.399 65.3249 922.369 63.2184 L922.369 70.267 Q918.359 71.9684 914.146 72.8596 Q909.933 73.7508 905.598 73.7508 Q894.742 73.7508 888.382 67.4314 Q882.063 61.1119 882.063 50.3365 Q882.063 39.1965 888.058 32.6746 Q894.094 26.1121 904.302 26.1121 Q913.457 26.1121 918.764 32.0264 Q924.111 37.9003 924.111 48.0275 M916.657 45.84 Q916.576 39.7232 913.214 36.0774 Q909.892 32.4315 904.383 32.4315 Q898.145 32.4315 894.377 35.9558 Q890.651 39.4801 890.083 45.8805 L916.657 45.84 Z" fill="#000000" fill-rule="evenodd" fill-opacity="1" /><path clip-path="url(#clip970)" d="M974.059 45.1919 L974.059 72.576 L966.605 72.576 L966.605 45.4349 Q966.605 38.994 964.093 35.7938 Q961.582 32.5936 956.559 32.5936 Q950.523 32.5936 947.039 36.4419 Q943.555 40.2903 943.555 46.9338 L943.555 72.576 L936.061 72.576 L936.061 27.2059 L943.555 27.2059 L943.555 34.2544 Q946.229 30.163 949.834 28.1376 Q953.48 26.1121 958.22 26.1121 Q966.038 26.1121 970.048 30.9732 Q974.059 35.7938 974.059 45.1919 Z" fill="#000000" fill-rule="evenodd" fill-opacity="1" /><path clip-path="url(#clip970)" d="M1021.58 28.9478 L1021.58 35.9153 Q1018.42 34.1734 1015.22 33.3227 Q1012.06 32.4315 1008.82 32.4315 Q1001.56 32.4315 997.554 37.0496 Q993.544 41.6271 993.544 49.9314 Q993.544 58.2358 997.554 62.8538 Q1001.56 67.4314 1008.82 67.4314 Q1012.06 67.4314 1015.22 66.5807 Q1018.42 65.6895 1021.58 63.9476 L1021.58 70.8341 Q1018.46 72.2924 1015.09 73.0216 Q1011.77 73.7508 1008.01 73.7508 Q997.756 73.7508 991.721 67.3098 Q985.685 60.8689 985.685 49.9314 Q985.685 38.832 991.761 32.472 Q997.878 26.1121 1008.49 26.1121 Q1011.93 26.1121 1015.22 26.8413 Q1018.5 27.5299 1021.58 28.9478 Z" fill="#000000" fill-rule="evenodd" fill-opacity="1" /><path clip-path="url(#clip970)" d="M1072.25 45.1919 L1072.25 72.576 L1064.8 72.576 L1064.8 45.4349 Q1064.8 38.994 1062.29 35.7938 Q1059.78 32.5936 1054.75 32.5936 Q1048.72 32.5936 1045.23 36.4419 Q1041.75 40.2903 1041.75 46.9338 L1041.75 72.576 L1034.26 72.576 L1034.26 9.54393 L1041.75 9.54393 L1041.75 34.2544 Q1044.42 30.163 1048.03 28.1376 Q1051.67 26.1121 1056.41 26.1121 Q1064.23 26.1121 1068.24 30.9732 Q1072.25 35.7938 1072.25 45.1919 Z" fill="#000000" fill-rule="evenodd" fill-opacity="1" /><path clip-path="url(#clip970)" d="M1122.44 35.9153 Q1125.24 30.8922 1129.13 28.5022 Q1133.02 26.1121 1138.28 26.1121 Q1145.37 26.1121 1149.22 31.0947 Q1153.07 36.0368 1153.07 45.1919 L1153.07 72.576 L1145.57 72.576 L1145.57 45.4349 Q1145.57 38.913 1143.26 35.7533 Q1140.96 32.5936 1136.22 32.5936 Q1130.42 32.5936 1127.06 36.4419 Q1123.7 40.2903 1123.7 46.9338 L1123.7 72.576 L1116.2 72.576 L1116.2 45.4349 Q1116.2 38.8725 1113.9 35.7533 Q1111.59 32.5936 1106.77 32.5936 Q1101.05 32.5936 1097.69 36.4824 Q1094.33 40.3308 1094.33 46.9338 L1094.33 72.576 L1086.84 72.576 L1086.84 27.2059 L1094.33 27.2059 L1094.33 34.2544 Q1096.88 30.082 1100.45 28.0971 Q1104.01 26.1121 1108.91 26.1121 Q1113.86 26.1121 1117.3 28.6237 Q1120.78 31.1352 1122.44 35.9153 Z" fill="#000000" fill-rule="evenodd" fill-opacity="1" /><path clip-path="url(#clip970)" d="M1188.55 49.7694 Q1179.52 49.7694 1176.04 51.8354 Q1172.55 53.9013 1172.55 58.8839 Q1172.55 62.8538 1175.15 65.2034 Q1177.78 67.5124 1182.28 67.5124 Q1188.47 67.5124 1192.2 63.1374 Q1195.97 58.7219 1195.97 51.4303 L1195.97 49.7694 L1188.55 49.7694 M1203.42 46.6907 L1203.42 72.576 L1195.97 72.576 L1195.97 65.6895 Q1193.42 69.8214 1189.61 71.8063 Q1185.8 73.7508 1180.29 73.7508 Q1173.32 73.7508 1169.19 69.8619 Q1165.1 65.9325 1165.1 59.3701 Q1165.1 51.7138 1170.2 47.825 Q1175.35 43.9361 1185.52 43.9361 L1195.97 43.9361 L1195.97 43.2069 Q1195.97 38.0623 1192.56 35.2672 Q1189.2 32.4315 1183.09 32.4315 Q1179.2 32.4315 1175.51 33.3632 Q1171.82 34.295 1168.42 36.1584 L1168.42 29.2718 Q1172.51 27.692 1176.36 26.9223 Q1180.21 26.1121 1183.86 26.1121 Q1193.7 26.1121 1198.56 31.2163 Q1203.42 36.3204 1203.42 46.6907 Z" fill="#000000" fill-rule="evenodd" fill-opacity="1" /><path clip-path="url(#clip970)" d="M1245.06 34.1734 Q1243.81 33.4443 1242.31 33.1202 Q1240.85 32.7556 1239.07 32.7556 Q1232.75 32.7556 1229.35 36.8875 Q1225.98 40.9789 1225.98 48.6757 L1225.98 72.576 L1218.49 72.576 L1218.49 27.2059 L1225.98 27.2059 L1225.98 34.2544 Q1228.33 30.1225 1232.1 28.1376 Q1235.87 26.1121 1241.26 26.1121 Q1242.03 26.1121 1242.96 26.2337 Q1243.89 26.3147 1245.02 26.5172 L1245.06 34.1734 Z" fill="#000000" fill-rule="evenodd" fill-opacity="1" /><path clip-path="url(#clip970)" d="M1252.6 9.54393 L1260.09 9.54393 L1260.09 46.7717 L1282.33 27.2059 L1291.85 27.2059 L1267.79 48.4326 L1292.86 72.576 L1283.14 72.576 L1260.09 50.4176 L1260.09 72.576 L1252.6 72.576 L1252.6 9.54393 Z" fill="#000000" fill-rule="evenodd" fill-opacity="1" /><path clip-path="url(#clip970)" d="M1327.62 12.096 L1339.81 12.096 L1355.25 53.2532 L1370.76 12.096 L1382.96 12.096 L1382.96 72.576 L1374.98 72.576 L1374.98 19.4686 L1359.38 60.9499 L1351.16 60.9499 L1335.56 19.4686 L1335.56 72.576 L1327.62 72.576 L1327.62 12.096 Z" fill="#000000" fill-rule="evenodd" fill-opacity="1" /><path clip-path="url(#clip970)" d="M1437.68 48.0275 L1437.68 51.6733 L1403.41 51.6733 Q1403.9 59.3701 1408.03 63.421 Q1412.2 67.4314 1419.62 67.4314 Q1423.91 67.4314 1427.92 66.3781 Q1431.97 65.3249 1435.94 63.2184 L1435.94 70.267 Q1431.93 71.9684 1427.72 72.8596 Q1423.51 73.7508 1419.17 73.7508 Q1408.32 73.7508 1401.96 67.4314 Q1395.64 61.1119 1395.64 50.3365 Q1395.64 39.1965 1401.63 32.6746 Q1407.67 26.1121 1417.88 26.1121 Q1427.03 26.1121 1432.34 32.0264 Q1437.68 37.9003 1437.68 48.0275 M1430.23 45.84 Q1430.15 39.7232 1426.79 36.0774 Q1423.47 32.4315 1417.96 32.4315 Q1411.72 32.4315 1407.95 35.9558 Q1404.22 39.4801 1403.66 45.8805 L1430.23 45.84 Z" fill="#000000" fill-rule="evenodd" fill-opacity="1" /><path clip-path="url(#clip970)" d="M1479.77 34.0924 L1479.77 9.54393 L1487.23 9.54393 L1487.23 72.576 L1479.77 72.576 L1479.77 65.7705 Q1477.42 69.8214 1473.82 71.8063 Q1470.25 73.7508 1465.23 73.7508 Q1457.01 73.7508 1451.82 67.1883 Q1446.68 60.6258 1446.68 49.9314 Q1446.68 39.2371 1451.82 32.6746 Q1457.01 26.1121 1465.23 26.1121 Q1470.25 26.1121 1473.82 28.0971 Q1477.42 30.0415 1479.77 34.0924 M1454.37 49.9314 Q1454.37 58.1548 1457.74 62.8538 Q1461.14 67.5124 1467.05 67.5124 Q1472.97 67.5124 1476.37 62.8538 Q1479.77 58.1548 1479.77 49.9314 Q1479.77 41.7081 1476.37 37.0496 Q1472.97 32.3505 1467.05 32.3505 Q1461.14 32.3505 1457.74 37.0496 Q1454.37 41.7081 1454.37 49.9314 Z" fill="#000000" fill-rule="evenodd" fill-opacity="1" /><path clip-path="url(#clip970)" d="M1502.58 27.2059 L1510.03 27.2059 L1510.03 72.576 L1502.58 72.576 L1502.58 27.2059 M1502.58 9.54393 L1510.03 9.54393 L1510.03 18.9825 L1502.58 18.9825 L1502.58 9.54393 Z" fill="#000000" fill-rule="evenodd" fill-opacity="1" /><path clip-path="url(#clip970)" d="M1546.25 49.7694 Q1537.22 49.7694 1533.73 51.8354 Q1530.25 53.9013 1530.25 58.8839 Q1530.25 62.8538 1532.84 65.2034 Q1535.47 67.5124 1539.97 67.5124 Q1546.17 67.5124 1549.89 63.1374 Q1553.66 58.7219 1553.66 51.4303 L1553.66 49.7694 L1546.25 49.7694 M1561.12 46.6907 L1561.12 72.576 L1553.66 72.576 L1553.66 65.6895 Q1551.11 69.8214 1547.3 71.8063 Q1543.49 73.7508 1537.99 73.7508 Q1531.02 73.7508 1526.89 69.8619 Q1522.79 65.9325 1522.79 59.3701 Q1522.79 51.7138 1527.9 47.825 Q1533.04 43.9361 1543.21 43.9361 L1553.66 43.9361 L1553.66 43.2069 Q1553.66 38.0623 1550.26 35.2672 Q1546.9 32.4315 1540.78 32.4315 Q1536.89 32.4315 1533.21 33.3632 Q1529.52 34.295 1526.12 36.1584 L1526.12 29.2718 Q1530.21 27.692 1534.06 26.9223 Q1537.9 26.1121 1541.55 26.1121 Q1551.39 26.1121 1556.25 31.2163 Q1561.12 36.3204 1561.12 46.6907 Z" fill="#000000" fill-rule="evenodd" fill-opacity="1" /><path clip-path="url(#clip970)" d="M1614.18 45.1919 L1614.18 72.576 L1606.73 72.576 L1606.73 45.4349 Q1606.73 38.994 1604.22 35.7938 Q1601.71 32.5936 1596.68 32.5936 Q1590.65 32.5936 1587.16 36.4419 Q1583.68 40.2903 1583.68 46.9338 L1583.68 72.576 L1576.19 72.576 L1576.19 27.2059 L1583.68 27.2059 L1583.68 34.2544 Q1586.35 30.163 1589.96 28.1376 Q1593.6 26.1121 1598.34 26.1121 Q1606.16 26.1121 1610.17 30.9732 Q1614.18 35.7938 1614.18 45.1919 Z" fill="#000000" fill-rule="evenodd" fill-opacity="1" /><path clip-path="url(#clip970)" d="M1692 14.0809 L1692 22.0612 Q1687.34 19.8332 1683.21 18.7395 Q1679.08 17.6457 1675.23 17.6457 Q1668.55 17.6457 1664.9 20.2383 Q1661.29 22.8309 1661.29 27.611 Q1661.29 31.6214 1663.68 33.6873 Q1666.12 35.7128 1672.84 36.9686 L1677.78 37.9813 Q1686.94 39.7232 1691.27 44.1387 Q1695.65 48.5136 1695.65 55.8863 Q1695.65 64.6767 1689.73 69.2137 Q1683.86 73.7508 1672.48 73.7508 Q1668.18 73.7508 1663.32 72.7785 Q1658.5 71.8063 1653.31 69.9024 L1653.31 61.4765 Q1658.3 64.2716 1663.08 65.6895 Q1667.86 67.1073 1672.48 67.1073 Q1679.48 67.1073 1683.29 64.3527 Q1687.1 61.598 1687.1 56.4939 Q1687.1 52.0379 1684.34 49.5264 Q1681.63 47.0148 1675.39 45.759 L1670.41 44.7868 Q1661.25 42.9639 1657.16 39.075 Q1653.07 35.1862 1653.07 28.2591 Q1653.07 20.2383 1658.7 15.6203 Q1664.37 11.0023 1674.3 11.0023 Q1678.55 11.0023 1682.97 11.7719 Q1687.38 12.5416 1692 14.0809 Z" fill="#000000" fill-rule="evenodd" fill-opacity="1" /><path clip-path="url(#clip970)" d="M1715.29 65.7705 L1715.29 89.8329 L1707.8 89.8329 L1707.8 27.2059 L1715.29 27.2059 L1715.29 34.0924 Q1717.64 30.0415 1721.21 28.0971 Q1724.81 26.1121 1729.8 26.1121 Q1738.06 26.1121 1743.2 32.6746 Q1748.39 39.2371 1748.39 49.9314 Q1748.39 60.6258 1743.2 67.1883 Q1738.06 73.7508 1729.8 73.7508 Q1724.81 73.7508 1721.21 71.8063 Q1717.64 69.8214 1715.29 65.7705 M1740.65 49.9314 Q1740.65 41.7081 1737.25 37.0496 Q1733.89 32.3505 1727.97 32.3505 Q1722.06 32.3505 1718.66 37.0496 Q1715.29 41.7081 1715.29 49.9314 Q1715.29 58.1548 1718.66 62.8538 Q1722.06 67.5124 1727.97 67.5124 Q1733.89 67.5124 1737.25 62.8538 Q1740.65 58.1548 1740.65 49.9314 Z" fill="#000000" fill-rule="evenodd" fill-opacity="1" /><path clip-path="url(#clip970)" d="M1799.55 48.0275 L1799.55 51.6733 L1765.28 51.6733 Q1765.77 59.3701 1769.9 63.421 Q1774.07 67.4314 1781.48 67.4314 Q1785.78 67.4314 1789.79 66.3781 Q1793.84 65.3249 1797.81 63.2184 L1797.81 70.267 Q1793.8 71.9684 1789.59 72.8596 Q1785.37 73.7508 1781.04 73.7508 Q1770.18 73.7508 1763.82 67.4314 Q1757.5 61.1119 1757.5 50.3365 Q1757.5 39.1965 1763.5 32.6746 Q1769.53 26.1121 1779.74 26.1121 Q1788.9 26.1121 1794.2 32.0264 Q1799.55 37.9003 1799.55 48.0275 M1792.1 45.84 Q1792.02 39.7232 1788.66 36.0774 Q1785.33 32.4315 1779.82 32.4315 Q1773.59 32.4315 1769.82 35.9558 Q1766.09 39.4801 1765.52 45.8805 L1792.1 45.84 Z" fill="#000000" fill-rule="evenodd" fill-opacity="1" /><path clip-path="url(#clip970)" d="M1850.59 48.0275 L1850.59 51.6733 L1816.32 51.6733 Q1816.81 59.3701 1820.94 63.421 Q1825.11 67.4314 1832.53 67.4314 Q1836.82 67.4314 1840.83 66.3781 Q1844.88 65.3249 1848.85 63.2184 L1848.85 70.267 Q1844.84 71.9684 1840.63 72.8596 Q1836.42 73.7508 1832.08 73.7508 Q1821.22 73.7508 1814.86 67.4314 Q1808.54 61.1119 1808.54 50.3365 Q1808.54 39.1965 1814.54 32.6746 Q1820.58 26.1121 1830.78 26.1121 Q1839.94 26.1121 1845.25 32.0264 Q1850.59 37.9003 1850.59 48.0275 M1843.14 45.84 Q1843.06 39.7232 1839.7 36.0774 Q1836.37 32.4315 1830.87 32.4315 Q1824.63 32.4315 1820.86 35.9558 Q1817.13 39.4801 1816.57 45.8805 L1843.14 45.84 Z" fill="#000000" fill-rule="evenodd" fill-opacity="1" /><path clip-path="url(#clip970)" d="M1892.68 34.0924 L1892.68 9.54393 L1900.14 9.54393 L1900.14 72.576 L1892.68 72.576 L1892.68 65.7705 Q1890.33 69.8214 1886.73 71.8063 Q1883.16 73.7508 1878.14 73.7508 Q1869.92 73.7508 1864.73 67.1883 Q1859.59 60.6258 1859.59 49.9314 Q1859.59 39.2371 1864.73 32.6746 Q1869.92 26.1121 1878.14 26.1121 Q1883.16 26.1121 1886.73 28.0971 Q1890.33 30.0415 1892.68 34.0924 M1867.28 49.9314 Q1867.28 58.1548 1870.65 62.8538 Q1874.05 67.5124 1879.96 67.5124 Q1885.88 67.5124 1889.28 62.8538 Q1892.68 58.1548 1892.68 49.9314 Q1892.68 41.7081 1889.28 37.0496 Q1885.88 32.3505 1879.96 32.3505 Q1874.05 32.3505 1870.65 37.0496 Q1867.28 41.7081 1867.28 49.9314 Z" fill="#000000" fill-rule="evenodd" fill-opacity="1" /><path clip-path="url(#clip972)" d="
M411.013 1351.69 L376.092 1351.69 L376.092 1270.99 L411.013 1270.99 L411.013 1351.69 L411.013 1351.69  Z
  " fill="#009af9" fill-rule="evenodd" fill-opacity="1"/>
<polyline clip-path="url(#clip972)" style="stroke:#000000; stroke-linecap:butt; stroke-linejoin:round; stroke-width:4; stroke-opacity:1; fill:none" points="
  411.013,1351.69 376.092,1351.69 376.092,1270.99 411.013,1270.99 411.013,1351.69 
  "/>
<path clip-path="url(#clip972)" d="
M430.121 1082.69 L376.092 1082.69 L376.092 1001.98 L430.121 1001.98 L430.121 1082.69 L430.121 1082.69  Z
  " fill="#009af9" fill-rule="evenodd" fill-opacity="1"/>
<polyline clip-path="url(#clip972)" style="stroke:#000000; stroke-linecap:butt; stroke-linejoin:round; stroke-width:4; stroke-opacity:1; fill:none" points="
  430.121,1082.69 376.092,1082.69 376.092,1001.98 430.121,1001.98 430.121,1082.69 
  "/>
<path clip-path="url(#clip972)" d="
M484.809 813.677 L376.092 813.677 L376.092 732.975 L484.809 732.975 L484.809 813.677 L484.809 813.677  Z
  " fill="#009af9" fill-rule="evenodd" fill-opacity="1"/>
<polyline clip-path="url(#clip972)" style="stroke:#000000; stroke-linecap:butt; stroke-linejoin:round; stroke-width:4; stroke-opacity:1; fill:none" points="
  484.809,813.677 376.092,813.677 376.092,732.975 484.809,732.975 484.809,813.677 
  "/>
<path clip-path="url(#clip972)" d="
M559.263 544.669 L376.092 544.669 L376.092 463.967 L559.263 463.967 L559.263 544.669 L559.263 544.669  Z
  " fill="#009af9" fill-rule="evenodd" fill-opacity="1"/>
<polyline clip-path="url(#clip972)" style="stroke:#000000; stroke-linecap:butt; stroke-linejoin:round; stroke-width:4; stroke-opacity:1; fill:none" points="
  559.263,544.669 376.092,544.669 376.092,463.967 559.263,463.967 559.263,544.669 
  "/>
<path clip-path="url(#clip972)" d="
M1929.75 275.661 L376.092 275.661 L376.092 194.958 L1929.75 194.958 L1929.75 275.661 L1929.75 275.661  Z
  " fill="#009af9" fill-rule="evenodd" fill-opacity="1"/>
<polyline clip-path="url(#clip972)" style="stroke:#000000; stroke-linecap:butt; stroke-linejoin:round; stroke-width:4; stroke-opacity:1; fill:none" points="
  1929.75,275.661 376.092,275.661 376.092,194.958 1929.75,194.958 1929.75,275.661 
  "/>
<circle clip-path="url(#clip972)" style="fill:#009af9; stroke:none; fill-opacity:0" cx="411.013" cy="1311.34" r="2"/>
<circle clip-path="url(#clip972)" style="fill:#009af9; stroke:none; fill-opacity:0" cx="430.121" cy="1042.33" r="2"/>
<circle clip-path="url(#clip972)" style="fill:#009af9; stroke:none; fill-opacity:0" cx="484.809" cy="773.326" r="2"/>
<circle clip-path="url(#clip972)" style="fill:#009af9; stroke:none; fill-opacity:0" cx="559.263" cy="504.318" r="2"/>
<circle clip-path="url(#clip972)" style="fill:#009af9; stroke:none; fill-opacity:0" cx="1929.75" cy="235.31" r="2"/>
<path clip-path="url(#clip970)" d="M431.962 1324.69 L439.601 1324.69 L439.601 1298.32 L431.291 1299.99 L431.291 1295.73 L439.555 1294.06 L444.231 1294.06 L444.231 1324.69 L451.87 1324.69 L451.87 1328.62 L431.962 1328.62 L431.962 1324.69 Z" fill="#ff0000" fill-rule="evenodd" fill-opacity="1" /><path clip-path="url(#clip970)" d="M461.314 1322.74 L466.198 1322.74 L466.198 1328.62 L461.314 1328.62 L461.314 1322.74 Z" fill="#ff0000" fill-rule="evenodd" fill-opacity="1" /><path clip-path="url(#clip970)" d="M486.383 1297.14 Q482.772 1297.14 480.944 1300.71 Q479.138 1304.25 479.138 1311.38 Q479.138 1318.48 480.944 1322.05 Q482.772 1325.59 486.383 1325.59 Q490.018 1325.59 491.823 1322.05 Q493.652 1318.48 493.652 1311.38 Q493.652 1304.25 491.823 1300.71 Q490.018 1297.14 486.383 1297.14 M486.383 1293.44 Q492.193 1293.44 495.249 1298.04 Q498.328 1302.63 498.328 1311.38 Q498.328 1320.1 495.249 1324.71 Q492.193 1329.29 486.383 1329.29 Q480.573 1329.29 477.494 1324.71 Q474.439 1320.1 474.439 1311.38 Q474.439 1302.63 477.494 1298.04 Q480.573 1293.44 486.383 1293.44 Z" fill="#ff0000" fill-rule="evenodd" fill-opacity="1" /><path clip-path="url(#clip970)" d="M517.124 1309.48 Q513.976 1309.48 512.124 1311.63 Q510.295 1313.78 510.295 1317.53 Q510.295 1321.26 512.124 1323.44 Q513.976 1325.59 517.124 1325.59 Q520.272 1325.59 522.101 1323.44 Q523.953 1321.26 523.953 1317.53 Q523.953 1313.78 522.101 1311.63 Q520.272 1309.48 517.124 1309.48 M526.406 1294.83 L526.406 1299.09 Q524.647 1298.25 522.841 1297.81 Q521.059 1297.37 519.3 1297.37 Q514.67 1297.37 512.216 1300.5 Q509.786 1303.62 509.439 1309.94 Q510.804 1307.93 512.865 1306.86 Q514.925 1305.78 517.402 1305.78 Q522.61 1305.78 525.619 1308.95 Q528.652 1312.09 528.652 1317.53 Q528.652 1322.86 525.503 1326.08 Q522.355 1329.29 517.124 1329.29 Q511.129 1329.29 507.957 1324.71 Q504.786 1320.1 504.786 1311.38 Q504.786 1303.18 508.675 1298.32 Q512.564 1293.44 519.115 1293.44 Q520.874 1293.44 522.656 1293.78 Q524.462 1294.13 526.406 1294.83 Z" fill="#ff0000" fill-rule="evenodd" fill-opacity="1" /><path clip-path="url(#clip970)" d="M567.702 1303.46 L567.702 1307.49 Q565.897 1306.56 563.952 1306.1 Q562.008 1305.64 559.925 1305.64 Q556.753 1305.64 555.156 1306.61 Q553.582 1307.58 553.582 1309.53 Q553.582 1311.01 554.716 1311.86 Q555.851 1312.7 559.276 1313.46 L560.735 1313.78 Q565.272 1314.76 567.17 1316.54 Q569.091 1318.3 569.091 1321.47 Q569.091 1325.08 566.221 1327.19 Q563.374 1329.29 558.374 1329.29 Q556.29 1329.29 554.022 1328.88 Q551.776 1328.48 549.276 1327.67 L549.276 1323.28 Q551.638 1324.5 553.929 1325.13 Q556.221 1325.73 558.466 1325.73 Q561.475 1325.73 563.096 1324.71 Q564.716 1323.67 564.716 1321.79 Q564.716 1320.06 563.536 1319.13 Q562.378 1318.21 558.42 1317.35 L556.938 1317 Q552.98 1316.17 551.221 1314.46 Q549.462 1312.72 549.462 1309.71 Q549.462 1306.05 552.054 1304.06 Q554.647 1302.07 559.415 1302.07 Q561.776 1302.07 563.86 1302.42 Q565.943 1302.77 567.702 1303.46 Z" fill="#ff0000" fill-rule="evenodd" fill-opacity="1" /><path clip-path="url(#clip970)" d="M451.07 1055.68 L458.709 1055.68 L458.709 1029.31 L450.399 1030.98 L450.399 1026.72 L458.663 1025.05 L463.339 1025.05 L463.339 1055.68 L470.977 1055.68 L470.977 1059.61 L451.07 1059.61 L451.07 1055.68 Z" fill="#ff0000" fill-rule="evenodd" fill-opacity="1" /><path clip-path="url(#clip970)" d="M480.422 1053.73 L485.306 1053.73 L485.306 1059.61 L480.422 1059.61 L480.422 1053.73 Z" fill="#ff0000" fill-rule="evenodd" fill-opacity="1" /><path clip-path="url(#clip970)" d="M506.07 1040.47 Q502.922 1040.47 501.07 1042.62 Q499.241 1044.78 499.241 1048.53 Q499.241 1052.25 501.07 1054.43 Q502.922 1056.58 506.07 1056.58 Q509.218 1056.58 511.047 1054.43 Q512.898 1052.25 512.898 1048.53 Q512.898 1044.78 511.047 1042.62 Q509.218 1040.47 506.07 1040.47 M515.352 1025.82 L515.352 1030.08 Q513.593 1029.24 511.787 1028.8 Q510.005 1028.36 508.246 1028.36 Q503.616 1028.36 501.162 1031.49 Q498.732 1034.61 498.385 1040.93 Q499.75 1038.92 501.811 1037.86 Q503.871 1036.77 506.348 1036.77 Q511.556 1036.77 514.565 1039.94 Q517.597 1043.09 517.597 1048.53 Q517.597 1053.85 514.449 1057.07 Q511.301 1060.29 506.07 1060.29 Q500.074 1060.29 496.903 1055.7 Q493.732 1051.1 493.732 1042.37 Q493.732 1034.17 497.621 1029.31 Q501.51 1024.43 508.06 1024.43 Q509.82 1024.43 511.602 1024.78 Q513.408 1025.12 515.352 1025.82 Z" fill="#ff0000" fill-rule="evenodd" fill-opacity="1" /><path clip-path="url(#clip970)" d="M538.5 1029.13 L526.695 1047.58 L538.5 1047.58 L538.5 1029.13 M537.273 1025.05 L543.153 1025.05 L543.153 1047.58 L548.083 1047.58 L548.083 1051.47 L543.153 1051.47 L543.153 1059.61 L538.5 1059.61 L538.5 1051.47 L522.898 1051.47 L522.898 1046.95 L537.273 1025.05 Z" fill="#ff0000" fill-rule="evenodd" fill-opacity="1" /><path clip-path="url(#clip970)" d="M586.81 1034.45 L586.81 1038.48 Q585.005 1037.55 583.06 1037.09 Q581.116 1036.63 579.032 1036.63 Q575.861 1036.63 574.264 1037.6 Q572.69 1038.57 572.69 1040.52 Q572.69 1042 573.824 1042.86 Q574.958 1043.69 578.384 1044.45 L579.843 1044.78 Q584.38 1045.75 586.278 1047.53 Q588.199 1049.29 588.199 1052.46 Q588.199 1056.07 585.329 1058.18 Q582.481 1060.29 577.481 1060.29 Q575.398 1060.29 573.13 1059.87 Q570.884 1059.48 568.384 1058.67 L568.384 1054.27 Q570.745 1055.49 573.037 1056.12 Q575.329 1056.72 577.574 1056.72 Q580.583 1056.72 582.204 1055.7 Q583.824 1054.66 583.824 1052.79 Q583.824 1051.05 582.643 1050.12 Q581.486 1049.2 577.528 1048.34 L576.046 1047.99 Q572.088 1047.16 570.329 1045.45 Q568.569 1043.71 568.569 1040.7 Q568.569 1037.04 571.162 1035.05 Q573.755 1033.06 578.523 1033.06 Q580.884 1033.06 582.967 1033.41 Q585.051 1033.76 586.81 1034.45 Z" fill="#ff0000" fill-rule="evenodd" fill-opacity="1" /><path clip-path="url(#clip970)" d="M519.114 771.972 Q522.471 772.689 524.346 774.958 Q526.244 777.226 526.244 780.56 Q526.244 785.675 522.725 788.476 Q519.207 791.277 512.725 791.277 Q510.549 791.277 508.235 790.837 Q505.943 790.421 503.489 789.564 L503.489 785.05 Q505.434 786.185 507.748 786.763 Q510.063 787.342 512.586 787.342 Q516.985 787.342 519.276 785.606 Q521.591 783.87 521.591 780.56 Q521.591 777.504 519.438 775.791 Q517.309 774.055 513.489 774.055 L509.461 774.055 L509.461 770.213 L513.674 770.213 Q517.123 770.213 518.952 768.847 Q520.781 767.458 520.781 764.865 Q520.781 762.203 518.883 760.791 Q517.008 759.356 513.489 759.356 Q511.568 759.356 509.369 759.773 Q507.17 760.189 504.531 761.069 L504.531 756.902 Q507.193 756.162 509.508 755.791 Q511.846 755.421 513.906 755.421 Q519.23 755.421 522.332 757.852 Q525.434 760.259 525.434 764.379 Q525.434 767.25 523.79 769.24 Q522.147 771.208 519.114 771.972 Z" fill="#ff0000" fill-rule="evenodd" fill-opacity="1" /><path clip-path="url(#clip970)" d="M535.109 784.726 L539.994 784.726 L539.994 790.606 L535.109 790.606 L535.109 784.726 Z" fill="#ff0000" fill-rule="evenodd" fill-opacity="1" /><path clip-path="url(#clip970)" d="M564.345 771.972 Q567.702 772.689 569.577 774.958 Q571.475 777.226 571.475 780.56 Q571.475 785.675 567.956 788.476 Q564.438 791.277 557.957 791.277 Q555.781 791.277 553.466 790.837 Q551.174 790.421 548.72 789.564 L548.72 785.05 Q550.665 786.185 552.98 786.763 Q555.295 787.342 557.818 787.342 Q562.216 787.342 564.507 785.606 Q566.822 783.87 566.822 780.56 Q566.822 777.504 564.669 775.791 Q562.54 774.055 558.72 774.055 L554.693 774.055 L554.693 770.213 L558.906 770.213 Q562.355 770.213 564.183 768.847 Q566.012 767.458 566.012 764.865 Q566.012 762.203 564.114 760.791 Q562.239 759.356 558.72 759.356 Q556.799 759.356 554.6 759.773 Q552.401 760.189 549.762 761.069 L549.762 756.902 Q552.424 756.162 554.739 755.791 Q557.077 755.421 559.137 755.421 Q564.461 755.421 567.563 757.852 Q570.665 760.259 570.665 764.379 Q570.665 767.25 569.021 769.24 Q567.378 771.208 564.345 771.972 Z" fill="#ff0000" fill-rule="evenodd" fill-opacity="1" /><path clip-path="url(#clip970)" d="M611.336 765.444 L611.336 769.472 Q609.53 768.546 607.586 768.083 Q605.641 767.62 603.558 767.62 Q600.387 767.62 598.79 768.592 Q597.216 769.564 597.216 771.509 Q597.216 772.99 598.35 773.847 Q599.484 774.68 602.91 775.444 L604.368 775.768 Q608.905 776.74 610.803 778.523 Q612.725 780.282 612.725 783.453 Q612.725 787.064 609.854 789.171 Q607.007 791.277 602.007 791.277 Q599.924 791.277 597.655 790.861 Q595.41 790.467 592.91 789.657 L592.91 785.259 Q595.271 786.486 597.563 787.111 Q599.854 787.712 602.1 787.712 Q605.109 787.712 606.729 786.694 Q608.35 785.652 608.35 783.777 Q608.35 782.041 607.169 781.115 Q606.012 780.189 602.054 779.333 L600.572 778.986 Q596.614 778.152 594.854 776.439 Q593.095 774.703 593.095 771.694 Q593.095 768.037 595.688 766.046 Q598.28 764.055 603.049 764.055 Q605.41 764.055 607.493 764.402 Q609.577 764.75 611.336 765.444 Z" fill="#ff0000" fill-rule="evenodd" fill-opacity="1" /><path clip-path="url(#clip970)" d="M579.448 487.038 L597.805 487.038 L597.805 490.973 L583.731 490.973 L583.731 499.445 Q584.749 499.098 585.768 498.936 Q586.786 498.751 587.805 498.751 Q593.592 498.751 596.971 501.922 Q600.351 505.093 600.351 510.51 Q600.351 516.089 596.879 519.19 Q593.406 522.269 587.087 522.269 Q584.911 522.269 582.643 521.899 Q580.397 521.528 577.99 520.788 L577.99 516.089 Q580.073 517.223 582.295 517.778 Q584.518 518.334 586.994 518.334 Q590.999 518.334 593.337 516.227 Q595.675 514.121 595.675 510.51 Q595.675 506.899 593.337 504.792 Q590.999 502.686 586.994 502.686 Q585.119 502.686 583.244 503.103 Q581.393 503.519 579.448 504.399 L579.448 487.038 Z" fill="#ff0000" fill-rule="evenodd" fill-opacity="1" /><path clip-path="url(#clip970)" d="M609.564 515.718 L614.448 515.718 L614.448 521.598 L609.564 521.598 L609.564 515.718 Z" fill="#ff0000" fill-rule="evenodd" fill-opacity="1" /><path clip-path="url(#clip970)" d="M624.679 487.038 L643.036 487.038 L643.036 490.973 L628.962 490.973 L628.962 499.445 Q629.98 499.098 630.999 498.936 Q632.017 498.751 633.036 498.751 Q638.823 498.751 642.202 501.922 Q645.582 505.093 645.582 510.51 Q645.582 516.089 642.11 519.19 Q638.638 522.269 632.318 522.269 Q630.142 522.269 627.874 521.899 Q625.628 521.528 623.221 520.788 L623.221 516.089 Q625.304 517.223 627.527 517.778 Q629.749 518.334 632.226 518.334 Q636.23 518.334 638.568 516.227 Q640.906 514.121 640.906 510.51 Q640.906 506.899 638.568 504.792 Q636.23 502.686 632.226 502.686 Q630.351 502.686 628.476 503.103 Q626.624 503.519 624.679 504.399 L624.679 487.038 Z" fill="#ff0000" fill-rule="evenodd" fill-opacity="1" /><path clip-path="url(#clip970)" d="M665.374 502.454 Q662.226 502.454 660.374 504.607 Q658.545 506.76 658.545 510.51 Q658.545 514.237 660.374 516.413 Q662.226 518.565 665.374 518.565 Q668.522 518.565 670.35 516.413 Q672.202 514.237 672.202 510.51 Q672.202 506.76 670.35 504.607 Q668.522 502.454 665.374 502.454 M674.656 487.802 L674.656 492.061 Q672.897 491.228 671.091 490.788 Q669.309 490.348 667.55 490.348 Q662.92 490.348 660.466 493.473 Q658.036 496.598 657.689 502.917 Q659.054 500.903 661.114 499.839 Q663.175 498.751 665.651 498.751 Q670.86 498.751 673.869 501.922 Q676.901 505.07 676.901 510.51 Q676.901 515.834 673.753 519.052 Q670.605 522.269 665.374 522.269 Q659.378 522.269 656.207 517.686 Q653.036 513.079 653.036 504.353 Q653.036 496.158 656.925 491.297 Q660.813 486.413 667.364 486.413 Q669.124 486.413 670.906 486.76 Q672.712 487.107 674.656 487.802 Z" fill="#ff0000" fill-rule="evenodd" fill-opacity="1" /><path clip-path="url(#clip970)" d="M715.952 496.436 L715.952 500.464 Q714.147 499.538 712.202 499.075 Q710.258 498.612 708.174 498.612 Q705.003 498.612 703.406 499.584 Q701.832 500.556 701.832 502.501 Q701.832 503.982 702.966 504.839 Q704.1 505.672 707.526 506.436 L708.985 506.76 Q713.522 507.732 715.42 509.515 Q717.341 511.274 717.341 514.445 Q717.341 518.056 714.471 520.163 Q711.623 522.269 706.623 522.269 Q704.54 522.269 702.272 521.852 Q700.026 521.459 697.526 520.649 L697.526 516.251 Q699.887 517.477 702.179 518.102 Q704.471 518.704 706.716 518.704 Q709.725 518.704 711.346 517.686 Q712.966 516.644 712.966 514.769 Q712.966 513.033 711.785 512.107 Q710.628 511.181 706.67 510.325 L705.188 509.977 Q701.23 509.144 699.471 507.431 Q697.711 505.695 697.711 502.686 Q697.711 499.028 700.304 497.038 Q702.897 495.047 707.665 495.047 Q710.026 495.047 712.11 495.394 Q714.193 495.741 715.952 496.436 Z" fill="#ff0000" fill-rule="evenodd" fill-opacity="1" /><path clip-path="url(#clip970)" d="M1962.74 222.104 L1950.93 240.553 L1962.74 240.553 L1962.74 222.104 M1961.51 218.03 L1967.39 218.03 L1967.39 240.553 L1972.32 240.553 L1972.32 244.441 L1967.39 244.441 L1967.39 252.59 L1962.74 252.59 L1962.74 244.441 L1947.13 244.441 L1947.13 239.928 L1961.51 218.03 Z" fill="#ff0000" fill-rule="evenodd" fill-opacity="1" /><path clip-path="url(#clip970)" d="M1978.87 218.03 L2001.09 218.03 L2001.09 220.02 L1988.55 252.59 L1983.66 252.59 L1995.47 221.965 L1978.87 221.965 L1978.87 218.03 Z" fill="#ff0000" fill-rule="evenodd" fill-opacity="1" /><path clip-path="url(#clip970)" d="M2010.21 246.71 L2015.1 246.71 L2015.1 252.59 L2010.21 252.59 L2010.21 246.71 Z" fill="#ff0000" fill-rule="evenodd" fill-opacity="1" /><path clip-path="url(#clip970)" d="M2026.09 248.654 L2033.73 248.654 L2033.73 222.289 L2025.42 223.955 L2025.42 219.696 L2033.68 218.03 L2038.36 218.03 L2038.36 248.654 L2046 248.654 L2046 252.59 L2026.09 252.59 L2026.09 248.654 Z" fill="#ff0000" fill-rule="evenodd" fill-opacity="1" /><path clip-path="url(#clip970)" d="M2066.02 233.446 Q2062.87 233.446 2061.02 235.599 Q2059.19 237.752 2059.19 241.502 Q2059.19 245.229 2061.02 247.404 Q2062.87 249.557 2066.02 249.557 Q2069.17 249.557 2071 247.404 Q2072.85 245.229 2072.85 241.502 Q2072.85 237.752 2071 235.599 Q2069.17 233.446 2066.02 233.446 M2075.3 218.793 L2075.3 223.053 Q2073.55 222.219 2071.74 221.78 Q2069.96 221.34 2068.2 221.34 Q2063.57 221.34 2061.11 224.465 Q2058.68 227.59 2058.34 233.909 Q2059.7 231.895 2061.76 230.83 Q2063.82 229.742 2066.3 229.742 Q2071.51 229.742 2074.52 232.914 Q2077.55 236.062 2077.55 241.502 Q2077.55 246.826 2074.4 250.043 Q2071.25 253.261 2066.02 253.261 Q2060.03 253.261 2056.86 248.678 Q2053.68 244.071 2053.68 235.344 Q2053.68 227.15 2057.57 222.289 Q2061.46 217.405 2068.01 217.405 Q2069.77 217.405 2071.55 217.752 Q2073.36 218.099 2075.3 218.793 Z" fill="#ff0000" fill-rule="evenodd" fill-opacity="1" /><path clip-path="url(#clip970)" d="M2116.6 227.428 L2116.6 231.455 Q2114.8 230.53 2112.85 230.067 Q2110.91 229.604 2108.82 229.604 Q2105.65 229.604 2104.05 230.576 Q2102.48 231.548 2102.48 233.492 Q2102.48 234.974 2103.61 235.83 Q2104.75 236.664 2108.17 237.428 L2109.63 237.752 Q2114.17 238.724 2116.07 240.506 Q2117.99 242.266 2117.99 245.437 Q2117.99 249.048 2115.12 251.154 Q2112.27 253.261 2107.27 253.261 Q2105.19 253.261 2102.92 252.844 Q2100.67 252.451 2098.17 251.641 L2098.17 247.242 Q2100.54 248.469 2102.83 249.094 Q2105.12 249.696 2107.36 249.696 Q2110.37 249.696 2111.99 248.678 Q2113.61 247.636 2113.61 245.761 Q2113.61 244.025 2112.43 243.099 Q2111.28 242.173 2107.32 241.317 L2105.84 240.969 Q2101.88 240.136 2100.12 238.423 Q2098.36 236.687 2098.36 233.678 Q2098.36 230.02 2100.95 228.03 Q2103.55 226.039 2108.31 226.039 Q2110.67 226.039 2112.76 226.386 Q2114.84 226.733 2116.6 227.428 Z" fill="#ff0000" fill-rule="evenodd" fill-opacity="1" /></svg>
